<svg width="179" height="190" viewBox="0 0 179 190" fill="none" xmlns="http://www.w3.org/2000/svg">
<path d="M26.8435 102.791C-7.76033 122.738 -7.76033 155.08 26.8435 175.027C61.4473 194.975 117.553 194.975 152.157 175.027C186.76 155.08 186.76 122.738 152.157 102.791C117.553 82.8432 61.4473 82.8432 26.8435 102.791Z" fill="#F5F5F5"/>
<path d="M115.163 150.612C126.343 157.137 126.339 167.716 115.163 174.246C103.987 180.775 85.8603 180.771 74.6801 174.246C63.4999 167.721 63.5041 157.137 74.6801 150.612C85.856 144.087 103.983 144.078 115.163 150.612Z" fill="#E0E0E0"/>
<path d="M126.392 11.0863C126.388 11.0155 126.375 10.9453 126.354 10.8776C126.358 10.8707 126.36 10.863 126.36 10.8551C126.36 10.8471 126.358 10.8394 126.354 10.8325C126.346 10.7622 126.328 10.6933 126.3 10.6279C126.271 10.5243 126.224 10.4262 126.162 10.3373C126.146 10.2933 126.12 10.253 126.088 10.2186C126.071 10.1872 126.049 10.1594 126.021 10.1368C125.978 10.0784 125.926 10.0273 125.867 9.98535C125.807 9.94073 125.741 9.90361 125.671 9.87485C125.415 9.77793 125.138 9.74477 124.866 9.77833C124.593 9.81189 124.334 9.91113 124.11 10.0672L55.0819 49.1199C53.8035 49.8443 52.7583 51.6206 52.7583 54.1621V167.346C52.7572 167.628 52.8341 167.904 52.9808 168.146C53.1276 168.387 53.3386 168.585 53.5911 168.717L53.6911 168.783C53.7285 168.803 53.766 168.828 53.8118 168.848C53.8758 168.878 53.9428 168.901 54.0117 168.918C54.1087 168.94 54.2078 168.952 54.3073 168.955C54.5793 168.952 54.8455 168.877 55.0777 168.738L55.1402 168.701L57.3554 167.444L124.076 129.632C124.753 129.199 125.316 128.615 125.719 127.928C126.123 127.241 126.356 126.47 126.4 125.678V11.3728C126.408 11.2746 126.4 11.1763 126.392 11.0863Z" fill="white"/>
<path d="M125.101 10.3991C125.191 10.3975 125.281 10.4172 125.363 10.4564L125.405 10.4769L125.442 10.5055L125.463 10.526L125.521 10.5996L125.567 10.6733C125.588 10.7002 125.604 10.7307 125.613 10.7633V10.792L125.675 10.9762V10.9966V11.0335C125.677 11.0539 125.677 11.0744 125.675 11.0949C125.675 11.1685 125.675 11.2463 125.675 11.3281V125.679C125.632 126.356 125.429 127.014 125.084 127.602C124.739 128.19 124.26 128.692 123.685 129.067L57.0306 166.876L54.8778 168.104H54.857L54.7945 168.145L54.7529 168.169C54.6267 168.245 54.484 168.29 54.3365 168.3H54.3115C54.2597 168.297 54.2082 168.291 54.1574 168.28H54.1158L54.0533 168.247L54.0034 168.214L53.9659 168.19H53.9409H53.9118C53.7643 168.114 53.6409 168 53.555 167.86C53.4691 167.72 53.4239 167.559 53.4246 167.396V54.1625C53.4246 51.7069 54.4531 50.2335 55.415 49.6851L124.414 10.6201C124.621 10.4923 124.857 10.4164 125.101 10.3991ZM125.101 9.74426C124.737 9.7591 124.383 9.86473 124.072 10.0512L55.0819 49.1203C53.8035 49.8447 52.7583 51.6209 52.7583 54.1625V166.843V167.343C52.7572 167.624 52.8341 167.9 52.9808 168.142C53.1276 168.383 53.3386 168.581 53.5911 168.714L53.6911 168.779C53.7285 168.8 53.766 168.824 53.8118 168.845C53.8758 168.874 53.9428 168.898 54.0117 168.914C54.1087 168.936 54.2078 168.949 54.3073 168.951H54.3407C54.6013 168.943 54.8552 168.868 55.0777 168.734L55.1402 168.697L57.3554 167.441L124.076 129.628C124.753 129.195 125.316 128.612 125.719 127.925C126.123 127.238 126.356 126.467 126.4 125.675V11.3732C126.4 11.2749 126.4 11.1767 126.4 11.0867C126.396 11.0158 126.384 10.9457 126.362 10.8779C126.366 10.8711 126.369 10.8633 126.369 10.8554C126.369 10.8475 126.366 10.8398 126.362 10.8329C126.354 10.7625 126.336 10.6936 126.308 10.6283C126.279 10.5247 126.232 10.4266 126.171 10.3377C126.154 10.2937 126.129 10.2534 126.096 10.219C126.08 10.1876 126.057 10.1598 126.029 10.1372C125.987 10.0788 125.935 10.0277 125.875 9.98573C125.815 9.9411 125.749 9.90399 125.679 9.87522C125.5 9.78647 125.302 9.74154 125.101 9.74426Z" fill="#0C8CE9"/>
<path d="M125.646 9.85882C125.39 9.7619 125.113 9.72874 124.841 9.7623C124.568 9.79586 124.309 9.8951 124.085 10.0512L55.0818 49.1203C54.4063 49.5541 53.844 50.138 53.4404 50.8247C53.0368 51.5115 52.8031 52.2819 52.7583 53.0738V57.5021L49.7935 55.7955V51.4204C49.837 50.6297 50.0693 49.8602 50.4715 49.1741C50.8737 48.488 51.4346 47.9045 52.1087 47.4709L121.12 8.4059C121.358 8.23544 121.64 8.13269 121.933 8.10887C122.227 8.08504 122.522 8.14108 122.785 8.27084C123.223 8.5164 125.151 9.60507 125.646 9.85882Z" fill="#0C8CE9"/>
<path d="M126.404 11.3565C126.404 9.91588 125.359 9.33062 124.08 10.055L55.0819 49.12C54.4059 49.5534 53.8433 50.1371 53.4396 50.824C53.0359 51.5109 52.8025 52.2815 52.7583 53.0736V57.506L126.404 15.8135V11.3565Z" fill="#0C8CE9"/>
<g opacity="0.2">
<path d="M124.08 10.0555L55.0818 49.1205C54.4008 49.5407 53.8393 50.1236 53.4495 50.8149L50.4972 49.1368C50.8798 48.4534 51.4366 47.8794 52.1129 47.4711L121.116 8.40202C121.357 8.2302 121.642 8.12677 121.94 8.10296C122.237 8.07915 122.535 8.13587 122.802 8.26696C123.218 8.52071 125.146 9.5971 125.638 9.85494C125.381 9.76237 125.105 9.73226 124.834 9.76718C124.563 9.80211 124.304 9.90102 124.08 10.0555Z" fill="white"/>
</g>
<path opacity="0.15" d="M49.7893 55.8038V51.4164C49.8233 50.6095 50.067 49.8247 50.4972 49.1367L53.4537 50.8065C53.0278 51.4909 52.7896 52.2721 52.7625 53.0739V57.5063L49.7893 55.8038Z" fill="black"/>
<path d="M116.319 16.7107C116.018 16.9215 115.772 17.1988 115.601 17.5201C115.43 17.8414 115.337 18.1978 115.332 18.5606C115.332 19.2768 115.773 19.6042 116.319 19.2932C116.619 19.0824 116.865 18.8051 117.036 18.4838C117.208 18.1625 117.3 17.8061 117.305 17.4433C117.305 16.7312 116.864 16.3997 116.319 16.7107Z" fill="#FAFAFA"/>
<path d="M119.866 14.6934C119.568 14.905 119.324 15.1819 119.153 15.5023C118.983 15.8227 118.89 16.1777 118.884 16.5392C118.884 17.2554 119.325 17.5829 119.866 17.2718C120.167 17.061 120.413 16.7837 120.584 16.4624C120.755 16.1411 120.848 15.7847 120.853 15.4219C120.853 14.7139 120.412 14.3864 119.866 14.6934Z" fill="#FAFAFA"/>
<path d="M123.435 12.6738C123.136 12.8862 122.891 13.1644 122.72 13.4863C122.549 13.8082 122.458 14.1649 122.452 14.5278C122.452 15.2399 122.894 15.5674 123.435 15.2604C123.736 15.0487 123.981 14.7707 124.153 14.4487C124.324 14.1267 124.416 13.7697 124.422 13.4064C124.401 12.6943 123.96 12.3668 123.435 12.6738Z" fill="#FAFAFA"/>
<path d="M53.5911 168.725L53.4745 168.66L51.026 167.268C50.6994 167.083 50.42 166.828 50.2093 166.521C49.9986 166.213 49.862 165.863 49.8101 165.496C49.797 165.386 49.79 165.275 49.7893 165.165V55.7949L52.7583 57.5057V167.342C52.7539 167.6 52.818 167.856 52.9443 168.082C53.0706 168.309 53.2547 168.5 53.4787 168.635C53.5024 168.655 53.5274 168.672 53.5536 168.688L53.5911 168.725Z" fill="#0C8CE9"/>
<path opacity="0.5" d="M53.5911 168.725L53.4745 168.66L51.026 167.268C50.6994 167.083 50.42 166.828 50.2093 166.521C49.9986 166.213 49.862 165.863 49.8101 165.496C49.797 165.386 49.79 165.275 49.7893 165.165V55.7949L52.7583 57.5057V167.342C52.7539 167.6 52.818 167.856 52.9443 168.082C53.0706 168.309 53.2547 168.5 53.4787 168.635C53.5024 168.655 53.5274 168.672 53.5536 168.688L53.5911 168.725Z" fill="white"/>
<path d="M129.211 107.062V118.032C129.202 118.132 129.171 118.228 129.121 118.315C129.071 118.402 129.003 118.477 128.921 118.536L100.79 134.755V123.785C100.799 123.685 100.83 123.588 100.88 123.501C100.93 123.414 100.998 123.339 101.08 123.281L129.211 107.062ZM129.331 106.602C129.254 106.605 129.179 106.628 129.113 106.668L100.888 122.943C100.746 123.035 100.629 123.16 100.544 123.306C100.46 123.452 100.411 123.616 100.403 123.785V134.856C100.403 135.073 100.51 135.202 100.67 135.202C100.747 135.199 100.822 135.176 100.888 135.136L129.113 118.86C129.255 118.769 129.374 118.645 129.459 118.498C129.543 118.352 129.593 118.188 129.602 118.019V106.948C129.602 106.728 129.491 106.602 129.331 106.602Z" fill="#455A64"/>
<g opacity="0.2">
<path d="M89.7853 108.334L119.845 91.0063C120.09 90.8646 120.286 90.978 120.286 91.2615V113.945C120.278 114.098 120.234 114.247 120.157 114.38C120.081 114.513 119.973 114.625 119.845 114.708L89.7853 132.036C89.5396 132.178 89.3442 132.064 89.3442 131.781V109.097C89.3519 108.944 89.3959 108.795 89.4726 108.662C89.5493 108.53 89.6565 108.417 89.7853 108.334Z" fill="black"/>
</g>
<path d="M119.221 93.0156L90.992 109.288C90.8508 109.38 90.7333 109.505 90.649 109.651C90.5647 109.797 90.516 109.961 90.5068 110.129V131.959C90.5161 132.128 90.5652 132.292 90.6501 132.437C90.7349 132.583 90.8532 132.706 90.9952 132.797L91.9183 133.32C92.07 133.396 92.2372 133.435 92.4066 133.435C92.5761 133.435 92.7432 133.396 92.8949 133.32L121.121 117.045C121.262 116.952 121.379 116.828 121.464 116.682C121.548 116.536 121.597 116.372 121.606 116.204V94.3703C121.597 94.2022 121.548 94.0387 121.463 93.8934C121.378 93.7482 121.26 93.6254 121.117 93.5354L120.207 93.0093C120.054 92.9328 119.884 92.8935 119.713 92.8946C119.542 92.8956 119.373 92.9371 119.221 93.0156Z" fill="#0C8CE9"/>
<path opacity="0.2" d="M92.8949 133.317C92.7427 133.391 92.5758 133.43 92.4066 133.43C92.2374 133.43 92.0705 133.391 91.9183 133.317L90.9952 132.791C90.8529 132.701 90.7344 132.578 90.6494 132.433C90.5644 132.288 90.5155 132.124 90.5068 131.956V110.129C90.5139 109.954 90.5671 109.783 90.6612 109.635L92.5515 110.728C92.4631 110.873 92.4132 111.038 92.4066 111.207V133.034C92.4066 133.317 92.6082 133.481 92.8949 133.317Z" fill="black"/>
<g opacity="0.2">
<path d="M121.599 94.2827C121.562 94.0402 121.363 93.9677 121.121 94.0906L92.8949 110.366C92.7517 110.456 92.6336 110.581 92.5515 110.729L90.6612 109.635C90.7429 109.495 90.8575 109.376 90.9951 109.289L119.224 93.0162C119.375 92.9401 119.542 92.9004 119.711 92.9004C119.88 92.9004 120.047 92.9401 120.197 93.0162L121.121 93.5424C121.249 93.6243 121.358 93.7328 121.441 93.8605C121.523 93.9882 121.577 94.1322 121.599 94.2827Z" fill="white"/>
</g>
<path d="M121.121 94.0913L92.8949 110.367C92.7533 110.459 92.6353 110.583 92.5505 110.729C92.4656 110.875 92.4164 111.04 92.4066 111.208V133.038C92.4066 133.353 92.6271 133.473 92.8949 133.319L121.121 117.043C121.262 116.951 121.379 116.826 121.464 116.68C121.548 116.534 121.597 116.37 121.606 116.202V94.3717C121.606 94.063 121.388 93.937 121.121 94.0913Z" fill="white"/>
<path d="M121.218 94.4854V116.202C121.209 116.302 121.178 116.399 121.128 116.485C121.078 116.572 121.01 116.648 120.928 116.706L92.7973 132.925V111.208C92.8068 111.109 92.8376 111.012 92.8876 110.925C92.9376 110.838 93.0056 110.763 93.0871 110.704L121.218 94.4854ZM121.338 94.0254C121.261 94.0285 121.186 94.0513 121.121 94.0916L92.8949 110.367C92.7533 110.459 92.6353 110.583 92.5505 110.73C92.4656 110.876 92.4164 111.04 92.4066 111.208V133.038C92.4066 133.256 92.5169 133.385 92.6776 133.385C92.7545 133.382 92.8293 133.359 92.8949 133.319L121.121 117.043C121.262 116.951 121.379 116.827 121.464 116.681C121.548 116.534 121.597 116.37 121.606 116.202V94.3719C121.606 94.1546 121.499 94.0254 121.338 94.0254Z" fill="#0C8CE9"/>
<path d="M94.0575 129.781C94.0458 129.781 94.0344 129.778 94.0244 129.772C94.0145 129.765 94.0063 129.757 94.0008 129.747C93.9964 129.739 93.9935 129.731 93.9924 129.722C93.9913 129.714 93.9919 129.705 93.9943 129.697C93.9967 129.689 94.0007 129.681 94.0061 129.674C94.0116 129.668 94.0183 129.662 94.026 129.658L119.652 114.851C119.66 114.846 119.668 114.844 119.677 114.842C119.686 114.841 119.695 114.842 119.703 114.844C119.712 114.847 119.72 114.851 119.727 114.856C119.734 114.862 119.74 114.868 119.744 114.876C119.748 114.883 119.751 114.892 119.752 114.9C119.753 114.909 119.753 114.917 119.75 114.926C119.748 114.934 119.744 114.942 119.738 114.948C119.733 114.955 119.726 114.96 119.719 114.964L94.0921 129.772C94.0815 129.778 94.0696 129.781 94.0575 129.781Z" fill="#455A64"/>
<path d="M94.0576 130.098C94.04 130.098 94.0232 130.091 94.0108 130.079C93.9984 130.066 93.9914 130.05 93.9914 130.032V129.418C93.9914 129.409 93.9931 129.4 93.9964 129.392C93.9998 129.384 94.0046 129.377 94.0108 129.371C94.0169 129.365 94.0242 129.36 94.0322 129.357C94.0403 129.353 94.0489 129.352 94.0576 129.352C94.0662 129.352 94.0748 129.353 94.0829 129.357C94.0909 129.36 94.0982 129.365 94.1043 129.371C94.1105 129.377 94.1153 129.384 94.1187 129.392C94.122 129.4 94.1237 129.409 94.1237 129.418V130.032C94.1237 130.05 94.1167 130.066 94.1043 130.079C94.0919 130.091 94.0751 130.098 94.0576 130.098Z" fill="#455A64"/>
<path d="M98.3296 127.61C98.3121 127.61 98.2953 127.603 98.2829 127.591C98.2705 127.578 98.2635 127.561 98.2635 127.544V126.914C98.2635 126.896 98.2705 126.879 98.2829 126.867C98.2953 126.855 98.3121 126.848 98.3296 126.848C98.3472 126.848 98.364 126.855 98.3764 126.867C98.3888 126.879 98.3958 126.896 98.3958 126.914V127.544C98.3958 127.553 98.3941 127.561 98.3908 127.569C98.3875 127.577 98.3826 127.585 98.3764 127.591C98.3703 127.597 98.363 127.602 98.355 127.605C98.3469 127.608 98.3383 127.61 98.3296 127.61Z" fill="#455A64"/>
<path d="M102.602 125.143C102.584 125.143 102.567 125.136 102.555 125.124C102.542 125.112 102.536 125.095 102.536 125.077V124.447C102.536 124.429 102.542 124.413 102.555 124.4C102.567 124.388 102.584 124.381 102.602 124.381C102.619 124.381 102.636 124.388 102.648 124.4C102.661 124.413 102.668 124.429 102.668 124.447V125.077C102.668 125.095 102.661 125.112 102.648 125.124C102.636 125.136 102.619 125.143 102.602 125.143Z" fill="#455A64"/>
<path d="M106.874 122.664C106.865 122.664 106.857 122.663 106.849 122.66C106.841 122.657 106.833 122.652 106.827 122.646C106.821 122.64 106.816 122.633 106.813 122.625C106.809 122.618 106.808 122.609 106.808 122.601V121.97C106.808 121.962 106.809 121.953 106.813 121.945C106.816 121.937 106.821 121.93 106.827 121.924C106.833 121.918 106.84 121.913 106.848 121.909C106.856 121.906 106.865 121.904 106.874 121.904C106.882 121.904 106.891 121.906 106.899 121.909C106.906 121.913 106.914 121.918 106.919 121.924C106.925 121.93 106.93 121.937 106.933 121.945C106.936 121.953 106.937 121.962 106.937 121.97V122.601C106.937 122.617 106.93 122.633 106.918 122.645C106.907 122.657 106.89 122.664 106.874 122.664Z" fill="#455A64"/>
<path d="M111.143 120.188C111.134 120.188 111.126 120.186 111.118 120.183C111.109 120.18 111.102 120.175 111.096 120.169C111.09 120.163 111.085 120.155 111.082 120.147C111.078 120.139 111.077 120.131 111.077 120.122V119.492C111.077 119.475 111.085 119.458 111.097 119.446C111.109 119.434 111.126 119.427 111.143 119.426C111.16 119.426 111.177 119.433 111.19 119.445C111.202 119.458 111.209 119.474 111.209 119.492V120.122C111.209 120.131 111.207 120.139 111.204 120.147C111.201 120.155 111.196 120.163 111.19 120.169C111.183 120.175 111.176 120.18 111.168 120.183C111.16 120.186 111.152 120.188 111.143 120.188Z" fill="#455A64"/>
<path d="M115.415 117.708C115.397 117.708 115.381 117.701 115.368 117.688C115.356 117.676 115.349 117.659 115.349 117.642V117.011C115.349 116.994 115.356 116.977 115.368 116.965C115.381 116.952 115.397 116.945 115.415 116.945C115.432 116.945 115.449 116.952 115.462 116.965C115.474 116.977 115.481 116.994 115.481 117.011V117.642C115.481 117.659 115.474 117.676 115.462 117.688C115.449 117.701 115.432 117.708 115.415 117.708Z" fill="#455A64"/>
<path d="M119.687 115.231C119.67 115.231 119.653 115.224 119.64 115.212C119.628 115.199 119.621 115.183 119.621 115.165V114.535C119.621 114.517 119.628 114.501 119.64 114.488C119.653 114.476 119.67 114.469 119.687 114.469C119.704 114.47 119.721 114.477 119.733 114.489C119.745 114.501 119.753 114.518 119.753 114.535V115.165C119.753 115.182 119.745 115.199 119.733 115.211C119.721 115.223 119.704 115.23 119.687 115.231Z" fill="#455A64"/>
<path opacity="0.7" d="M94.0575 123.548C96.1936 122.313 96.7291 125.089 98.3296 124.178C99.9301 123.268 98.8621 117.704 101.534 116.163C104.205 114.623 103.67 119.862 106.338 118.318C109.007 116.775 107.939 106.913 110.61 105.373C113.282 103.832 112.746 111.614 115.415 110.036C118.083 108.457 116.483 100.748 119.687 98.8984V113.706L94.0575 128.513V123.548Z" fill="#0C8CE9"/>
<path opacity="0.7" d="M119.687 101.678V113.684L94.0575 128.492V126.643L95.9478 124.752C95.9856 124.847 96.0833 124.872 96.1967 124.806C96.2749 124.755 96.34 124.687 96.3865 124.607C96.4331 124.526 96.4598 124.436 96.4645 124.343C96.4674 124.312 96.4629 124.281 96.4514 124.253C96.4399 124.224 96.4217 124.199 96.3983 124.179L98.1311 121.425C98.1607 121.446 98.1959 121.457 98.232 121.457C98.268 121.457 98.3032 121.446 98.3328 121.425C98.4259 121.366 98.4994 121.281 98.5439 121.18L100.255 121.671C100.221 121.739 100.202 121.813 100.201 121.888C100.201 122.059 100.321 122.128 100.469 122.043C100.546 121.991 100.609 121.922 100.655 121.842C100.701 121.762 100.728 121.672 100.733 121.58C100.735 121.537 100.726 121.495 100.708 121.457L102.365 119.541C102.406 119.62 102.498 119.639 102.605 119.576C102.682 119.525 102.746 119.458 102.792 119.378C102.838 119.298 102.865 119.208 102.87 119.116C102.872 119.088 102.868 119.06 102.859 119.033C102.85 119.007 102.835 118.982 102.816 118.962L104.527 116.492C104.557 116.515 104.595 116.528 104.634 116.528C104.673 116.528 104.71 116.515 104.741 116.492C104.818 116.44 104.882 116.371 104.927 116.291C104.973 116.211 105 116.121 105.006 116.028C105.009 116.005 105.009 115.982 105.006 115.959L106.622 114.554C106.653 114.674 106.757 114.712 106.883 114.642C106.96 114.59 107.024 114.522 107.069 114.441C107.115 114.361 107.142 114.271 107.148 114.179C107.15 114.136 107.14 114.094 107.12 114.056L108.78 112.141C108.821 112.216 108.912 112.235 109.016 112.172C109.096 112.125 109.162 112.056 109.205 111.974L110.963 112.991C110.915 113.07 110.888 113.16 110.885 113.253C110.885 113.423 111.004 113.492 111.152 113.407C111.23 113.357 111.295 113.288 111.342 113.208C111.388 113.127 111.415 113.037 111.42 112.944C111.423 112.921 111.423 112.898 111.42 112.875L113.039 111.473C113.068 111.592 113.172 111.63 113.298 111.558C113.376 111.507 113.441 111.439 113.487 111.358C113.534 111.278 113.561 111.188 113.566 111.095C113.571 111.058 113.564 111.02 113.545 110.988C113.527 110.955 113.499 110.93 113.465 110.915L115.267 107.273C115.295 107.281 115.325 107.283 115.354 107.278C115.382 107.273 115.41 107.261 115.434 107.245C115.512 107.195 115.576 107.127 115.623 107.047C115.67 106.967 115.697 106.877 115.702 106.785L117.302 105.862C117.302 106.032 117.422 106.101 117.57 106.016C117.648 105.965 117.713 105.897 117.759 105.817C117.806 105.736 117.833 105.646 117.838 105.553C117.843 105.516 117.835 105.478 117.817 105.445C117.799 105.412 117.771 105.386 117.737 105.37L119.533 101.741C119.561 101.742 119.59 101.737 119.617 101.726C119.644 101.715 119.667 101.699 119.687 101.678Z" fill="#0C8CE9"/>
<path d="M94.0574 126.697C94.0448 126.696 94.0326 126.692 94.0222 126.685C94.0118 126.678 94.0036 126.668 93.9986 126.657C93.9937 126.645 93.9921 126.632 93.9942 126.62C93.9962 126.607 94.0018 126.596 94.0102 126.586L95.9005 124.68C95.9128 124.669 95.9291 124.662 95.9462 124.662C95.9632 124.662 95.9795 124.669 95.9919 124.68C95.998 124.686 96.003 124.693 96.0063 124.701C96.0097 124.709 96.0115 124.718 96.0115 124.726C96.0115 124.735 96.0097 124.743 96.0063 124.751C96.003 124.759 95.998 124.766 95.9919 124.772L94.1015 126.662C94.0974 126.671 94.0912 126.679 94.0835 126.685C94.0759 126.691 94.0669 126.695 94.0574 126.697Z" fill="#455A64"/>
<path d="M96.3952 124.22C96.3839 124.224 96.3719 124.224 96.3605 124.22C96.3531 124.216 96.3466 124.21 96.3414 124.203C96.3362 124.196 96.3325 124.188 96.3305 124.179C96.3284 124.171 96.3281 124.162 96.3294 124.153C96.3308 124.145 96.3339 124.136 96.3385 124.129L98.0744 121.375C98.0786 121.368 98.0843 121.362 98.0911 121.357C98.0979 121.351 98.1056 121.348 98.1138 121.346C98.1221 121.344 98.1306 121.343 98.139 121.345C98.1474 121.346 98.1554 121.349 98.1626 121.353C98.1701 121.358 98.1766 121.364 98.1818 121.371C98.1869 121.378 98.1907 121.386 98.1927 121.394C98.1948 121.403 98.1951 121.412 98.1937 121.42C98.1924 121.429 98.1893 121.437 98.1847 121.445L96.4487 124.201C96.4419 124.209 96.4335 124.214 96.4242 124.217C96.4149 124.221 96.405 124.222 96.3952 124.22Z" fill="#455A64"/>
<path d="M100.251 121.703H100.233L98.525 121.212C98.5083 121.206 98.4944 121.195 98.4861 121.18C98.4779 121.164 98.476 121.146 98.4809 121.13C98.4826 121.121 98.4862 121.113 98.4912 121.106C98.4963 121.1 98.5028 121.094 98.5102 121.09C98.5177 121.085 98.526 121.083 98.5345 121.082C98.543 121.082 98.5516 121.083 98.5597 121.086L100.27 121.577C100.287 121.582 100.301 121.594 100.309 121.609C100.318 121.624 100.319 121.642 100.315 121.659C100.31 121.672 100.301 121.683 100.29 121.691C100.279 121.699 100.265 121.703 100.251 121.703Z" fill="#455A64"/>
<path d="M100.702 121.491C100.694 121.491 100.687 121.489 100.68 121.486C100.672 121.482 100.666 121.478 100.661 121.472C100.649 121.46 100.643 121.443 100.643 121.426C100.643 121.409 100.649 121.393 100.661 121.38L102.321 119.465C102.327 119.459 102.334 119.454 102.342 119.45C102.35 119.447 102.358 119.445 102.367 119.445C102.376 119.445 102.384 119.447 102.392 119.45C102.4 119.454 102.407 119.459 102.413 119.465C102.424 119.477 102.431 119.494 102.431 119.511C102.431 119.528 102.424 119.544 102.413 119.556L100.752 121.472C100.746 121.478 100.738 121.483 100.729 121.487C100.72 121.49 100.711 121.491 100.702 121.491Z" fill="#455A64"/>
<path d="M102.816 118.989C102.804 118.994 102.79 118.994 102.778 118.989C102.764 118.98 102.753 118.965 102.75 118.948C102.746 118.931 102.75 118.913 102.759 118.898L104.47 116.431C104.483 116.42 104.499 116.414 104.516 116.414C104.532 116.414 104.549 116.42 104.561 116.431C104.575 116.441 104.585 116.457 104.588 116.474C104.591 116.491 104.587 116.508 104.577 116.523L102.879 118.961C102.872 118.971 102.863 118.979 102.851 118.984C102.84 118.989 102.828 118.991 102.816 118.989Z" fill="#455A64"/>
<path d="M104.996 115.991C104.987 115.991 104.977 115.989 104.968 115.985C104.96 115.982 104.952 115.976 104.946 115.969C104.939 115.963 104.935 115.956 104.931 115.948C104.928 115.94 104.926 115.931 104.926 115.923C104.926 115.914 104.928 115.906 104.931 115.898C104.935 115.89 104.939 115.883 104.946 115.877L106.565 114.475C106.578 114.468 106.594 114.465 106.609 114.468C106.624 114.47 106.637 114.478 106.647 114.49C106.657 114.501 106.663 114.516 106.663 114.531C106.664 114.546 106.659 114.561 106.65 114.573L105.031 115.975C105.021 115.984 105.009 115.99 104.996 115.991Z" fill="#455A64"/>
<path d="M107.11 114.091C107.095 114.091 107.08 114.086 107.069 114.076C107.057 114.063 107.051 114.046 107.051 114.028C107.051 114.011 107.057 113.994 107.069 113.981L108.73 112.065C108.742 112.054 108.759 112.047 108.777 112.047C108.794 112.047 108.811 112.054 108.824 112.065C108.835 112.079 108.842 112.095 108.842 112.113C108.842 112.13 108.835 112.147 108.824 112.16L107.161 114.063C107.155 114.071 107.148 114.078 107.139 114.083C107.13 114.088 107.12 114.091 107.11 114.091Z" fill="#455A64"/>
<path d="M110.954 113.023H110.922L109.18 111.999C109.172 111.995 109.166 111.99 109.16 111.983C109.155 111.977 109.151 111.969 109.148 111.961C109.146 111.952 109.145 111.944 109.146 111.935C109.148 111.927 109.15 111.919 109.155 111.911C109.159 111.903 109.165 111.897 109.172 111.891C109.179 111.886 109.187 111.882 109.195 111.879C109.204 111.877 109.213 111.876 109.221 111.878C109.23 111.879 109.238 111.882 109.246 111.886L111.004 112.9C111.012 112.905 111.018 112.911 111.023 112.918C111.028 112.925 111.032 112.933 111.034 112.942C111.036 112.95 111.037 112.959 111.035 112.968C111.034 112.976 111.031 112.984 111.026 112.992C111.019 113.005 111.009 113.015 110.995 113.02C110.982 113.026 110.968 113.027 110.954 113.023Z" fill="#455A64"/>
<path d="M111.401 112.911C111.383 112.909 111.366 112.901 111.354 112.889C111.348 112.882 111.343 112.875 111.339 112.867C111.336 112.859 111.334 112.85 111.334 112.841C111.334 112.832 111.336 112.824 111.339 112.816C111.343 112.807 111.348 112.8 111.354 112.794L112.97 111.395C112.983 111.388 112.999 111.385 113.014 111.388C113.029 111.39 113.042 111.398 113.052 111.409C113.062 111.421 113.068 111.435 113.069 111.451C113.069 111.466 113.064 111.481 113.055 111.493L111.439 112.895C111.428 112.903 111.415 112.909 111.401 112.911Z" fill="#455A64"/>
<path d="M113.446 110.947H113.418C113.41 110.943 113.403 110.938 113.397 110.931C113.391 110.925 113.386 110.917 113.383 110.909C113.381 110.901 113.379 110.892 113.38 110.884C113.38 110.875 113.382 110.866 113.386 110.859L115.185 107.223C115.193 107.208 115.207 107.196 115.223 107.191C115.24 107.185 115.258 107.187 115.273 107.195C115.281 107.198 115.288 107.203 115.294 107.21C115.3 107.216 115.304 107.224 115.307 107.232C115.31 107.24 115.311 107.249 115.311 107.258C115.311 107.266 115.308 107.275 115.305 107.283L113.506 110.912C113.5 110.923 113.491 110.932 113.481 110.938C113.47 110.944 113.458 110.947 113.446 110.947Z" fill="#455A64"/>
<path d="M115.683 106.817C115.671 106.817 115.66 106.814 115.65 106.809C115.641 106.803 115.632 106.795 115.626 106.786C115.621 106.778 115.618 106.77 115.617 106.762C115.616 106.753 115.616 106.744 115.618 106.736C115.62 106.727 115.624 106.719 115.629 106.712C115.634 106.705 115.641 106.699 115.648 106.694L117.252 105.771C117.259 105.767 117.267 105.764 117.275 105.763C117.284 105.761 117.292 105.762 117.3 105.764C117.309 105.766 117.316 105.769 117.323 105.774C117.33 105.78 117.336 105.786 117.34 105.793C117.344 105.801 117.348 105.809 117.349 105.818C117.35 105.826 117.35 105.835 117.348 105.844C117.346 105.852 117.342 105.86 117.337 105.867C117.332 105.874 117.325 105.88 117.318 105.885L115.714 106.817C115.704 106.82 115.693 106.82 115.683 106.817Z" fill="#455A64"/>
<path d="M117.718 105.398H117.69C117.682 105.394 117.675 105.389 117.669 105.383C117.663 105.376 117.659 105.369 117.656 105.361C117.653 105.352 117.651 105.344 117.652 105.335C117.652 105.326 117.654 105.318 117.658 105.31L119.454 101.68C119.458 101.673 119.463 101.666 119.469 101.66C119.476 101.654 119.483 101.649 119.492 101.646C119.5 101.644 119.508 101.642 119.517 101.643C119.526 101.643 119.534 101.645 119.542 101.649C119.55 101.653 119.557 101.658 119.563 101.664C119.569 101.671 119.573 101.678 119.576 101.687C119.579 101.695 119.58 101.703 119.58 101.712C119.58 101.721 119.577 101.729 119.574 101.737L117.775 105.367C117.769 105.377 117.761 105.385 117.751 105.391C117.741 105.396 117.729 105.399 117.718 105.398Z" fill="#455A64"/>
<path d="M96.0738 124.884C96.0382 124.884 96.0034 124.874 95.973 124.856C95.935 124.831 95.9043 124.797 95.8844 124.756C95.8644 124.716 95.8558 124.671 95.8596 124.626C95.8662 124.52 95.8983 124.418 95.9532 124.327C96.008 124.236 96.084 124.161 96.1746 124.106C96.2106 124.079 96.2537 124.063 96.2985 124.061C96.3432 124.058 96.3878 124.069 96.4266 124.091C96.4655 124.114 96.4969 124.147 96.5171 124.187C96.5372 124.227 96.5452 124.272 96.5401 124.317C96.5337 124.423 96.5017 124.525 96.4468 124.616C96.3919 124.706 96.3158 124.782 96.225 124.837C96.1799 124.866 96.1276 124.882 96.0738 124.884ZM96.225 124.222C96.1578 124.267 96.1018 124.327 96.0614 124.397C96.021 124.467 95.9972 124.545 95.9919 124.626C95.9919 124.682 96.0076 124.726 96.0391 124.742C96.0596 124.749 96.0815 124.751 96.1029 124.748C96.1244 124.745 96.1446 124.736 96.162 124.723C96.2296 124.678 96.2859 124.618 96.3263 124.547C96.3668 124.477 96.3903 124.398 96.3952 124.317C96.3983 124.296 96.3959 124.274 96.3881 124.254C96.3804 124.234 96.3676 124.217 96.351 124.203C96.3302 124.195 96.3076 124.193 96.2855 124.196C96.2635 124.2 96.2426 124.209 96.225 124.222Z" fill="#455A64"/>
<path d="M98.2099 121.492C98.1745 121.494 98.1395 121.485 98.1091 121.467C98.0711 121.442 98.0405 121.408 98.0205 121.367C98.0005 121.327 97.9919 121.282 97.9957 121.237C98.002 121.131 98.034 121.028 98.0889 120.938C98.1438 120.847 98.2199 120.771 98.3107 120.717C98.3471 120.691 98.3897 120.676 98.4341 120.673C98.4785 120.669 98.523 120.678 98.5628 120.698C98.6008 120.722 98.6314 120.757 98.6514 120.797C98.6714 120.838 98.6799 120.883 98.6762 120.928C98.6698 121.034 98.6378 121.136 98.5829 121.227C98.528 121.317 98.4519 121.393 98.3611 121.448C98.3158 121.476 98.2634 121.492 98.2099 121.492ZM98.3611 120.83C98.294 120.876 98.2381 120.936 98.1978 121.007C98.1574 121.077 98.1335 121.156 98.128 121.237C98.1249 121.258 98.1273 121.28 98.1351 121.301C98.1428 121.321 98.1555 121.339 98.1721 121.353C98.1931 121.36 98.2155 121.362 98.2374 121.359C98.2593 121.356 98.2802 121.347 98.2981 121.334C98.3657 121.289 98.422 121.229 98.4624 121.159C98.5029 121.088 98.5264 121.009 98.5313 120.928C98.534 120.906 98.531 120.884 98.5228 120.864C98.5145 120.843 98.5012 120.825 98.484 120.811C98.4635 120.804 98.4416 120.802 98.4202 120.806C98.3988 120.809 98.3785 120.817 98.3611 120.83Z" fill="#455A64"/>
<path d="M100.359 122.108C100.322 122.108 100.287 122.1 100.255 122.083C100.217 122.058 100.188 122.024 100.168 121.983C100.149 121.943 100.141 121.898 100.144 121.853C100.151 121.748 100.183 121.645 100.238 121.555C100.293 121.464 100.369 121.388 100.459 121.333C100.491 121.314 100.527 121.301 100.564 121.297C100.601 121.292 100.638 121.296 100.674 121.308C100.711 121.333 100.741 121.367 100.761 121.408C100.78 121.448 100.788 121.493 100.784 121.538C100.779 121.642 100.75 121.744 100.698 121.835C100.646 121.925 100.573 122.002 100.485 122.058C100.447 122.084 100.404 122.101 100.359 122.108ZM100.598 121.418C100.567 121.42 100.536 121.43 100.51 121.447C100.442 121.492 100.386 121.552 100.345 121.623C100.305 121.693 100.281 121.772 100.277 121.853C100.274 121.875 100.277 121.897 100.284 121.917C100.292 121.937 100.305 121.955 100.321 121.97C100.341 121.977 100.363 121.979 100.385 121.976C100.406 121.972 100.426 121.964 100.444 121.951C100.512 121.906 100.568 121.846 100.609 121.775C100.65 121.705 100.674 121.626 100.68 121.544C100.682 121.523 100.679 121.501 100.671 121.48C100.663 121.46 100.65 121.442 100.633 121.428C100.619 121.419 100.602 121.415 100.585 121.418H100.598Z" fill="#455A64"/>
<path d="M102.482 119.646C102.446 119.646 102.41 119.637 102.378 119.621C102.342 119.595 102.312 119.561 102.293 119.52C102.274 119.48 102.265 119.436 102.268 119.391C102.273 119.287 102.302 119.185 102.354 119.095C102.407 119.004 102.479 118.928 102.567 118.871C102.604 118.845 102.647 118.83 102.692 118.827C102.737 118.824 102.782 118.832 102.822 118.852C102.86 118.877 102.89 118.911 102.91 118.952C102.929 118.992 102.937 119.037 102.933 119.082C102.928 119.186 102.898 119.288 102.846 119.379C102.794 119.469 102.721 119.546 102.633 119.602C102.587 119.629 102.535 119.644 102.482 119.646ZM102.633 118.985C102.566 119.03 102.509 119.09 102.469 119.16C102.428 119.231 102.405 119.31 102.4 119.391C102.397 119.412 102.399 119.434 102.407 119.454C102.415 119.473 102.428 119.491 102.444 119.504C102.464 119.513 102.487 119.516 102.508 119.513C102.53 119.509 102.55 119.5 102.567 119.485C102.635 119.441 102.692 119.382 102.733 119.312C102.774 119.242 102.798 119.163 102.803 119.082C102.81 119.06 102.809 119.037 102.8 119.016C102.792 118.995 102.777 118.977 102.757 118.966C102.737 118.955 102.714 118.951 102.692 118.954C102.669 118.957 102.649 118.968 102.633 118.985Z" fill="#455A64"/>
<path d="M104.618 116.56C104.582 116.561 104.546 116.551 104.514 116.532C104.477 116.507 104.448 116.473 104.429 116.433C104.409 116.393 104.401 116.349 104.404 116.305C104.41 116.199 104.442 116.097 104.497 116.006C104.552 115.916 104.628 115.84 104.719 115.785C104.756 115.76 104.799 115.744 104.844 115.741C104.889 115.738 104.934 115.746 104.974 115.766C105.012 115.791 105.042 115.825 105.061 115.866C105.081 115.906 105.089 115.951 105.084 115.996C105.079 116.1 105.049 116.201 104.997 116.291C104.945 116.381 104.873 116.457 104.785 116.513C104.735 116.544 104.677 116.56 104.618 116.56ZM104.769 115.899C104.702 115.944 104.646 116.004 104.605 116.074C104.565 116.145 104.541 116.224 104.536 116.305C104.529 116.327 104.529 116.35 104.537 116.371C104.546 116.392 104.561 116.41 104.581 116.421C104.6 116.433 104.623 116.436 104.646 116.432C104.668 116.429 104.689 116.417 104.703 116.4C104.77 116.355 104.826 116.295 104.867 116.225C104.907 116.155 104.931 116.077 104.936 115.996C104.939 115.975 104.937 115.953 104.929 115.932C104.922 115.912 104.909 115.894 104.892 115.88C104.872 115.873 104.85 115.871 104.828 115.874C104.807 115.877 104.787 115.886 104.769 115.899Z" fill="#455A64"/>
<path d="M106.754 114.711C106.722 114.712 106.689 114.706 106.66 114.692C106.622 114.667 106.592 114.633 106.572 114.592C106.553 114.552 106.545 114.507 106.549 114.462C106.555 114.358 106.584 114.257 106.636 114.167C106.689 114.078 106.761 114.001 106.849 113.945C106.886 113.92 106.929 113.904 106.974 113.901C107.019 113.898 107.064 113.907 107.104 113.926C107.142 113.951 107.172 113.985 107.191 114.026C107.211 114.067 107.219 114.112 107.214 114.156C107.207 114.262 107.175 114.364 107.12 114.454C107.065 114.543 106.989 114.619 106.899 114.673C106.855 114.697 106.805 114.71 106.754 114.711ZM106.905 114.049C106.838 114.094 106.782 114.154 106.742 114.224C106.701 114.294 106.678 114.372 106.672 114.453C106.672 114.512 106.672 114.553 106.716 114.569C106.76 114.585 106.789 114.569 106.839 114.55C106.906 114.505 106.962 114.446 107.003 114.376C107.043 114.306 107.067 114.228 107.072 114.147C107.072 114.087 107.057 114.046 107.028 114.03C107.008 114.023 106.986 114.021 106.965 114.025C106.943 114.028 106.923 114.036 106.905 114.049Z" fill="#455A64"/>
<path d="M111.023 113.48C110.988 113.48 110.953 113.47 110.922 113.451C110.885 113.427 110.854 113.392 110.835 113.352C110.816 113.311 110.808 113.266 110.812 113.221C110.816 113.117 110.846 113.015 110.898 112.925C110.95 112.834 111.023 112.758 111.111 112.702C111.147 112.673 111.19 112.656 111.236 112.653C111.281 112.65 111.326 112.66 111.366 112.683C111.405 112.706 111.437 112.74 111.457 112.781C111.477 112.822 111.484 112.868 111.477 112.913C111.47 113.018 111.438 113.121 111.383 113.211C111.328 113.302 111.252 113.378 111.162 113.432C111.12 113.459 111.072 113.475 111.023 113.48ZM111.263 112.79C111.233 112.792 111.204 112.8 111.178 112.815C111.109 112.86 111.053 112.92 111.012 112.991C110.971 113.061 110.947 113.14 110.941 113.221C110.935 113.243 110.936 113.266 110.944 113.288C110.953 113.309 110.968 113.326 110.988 113.337C111.007 113.349 111.03 113.353 111.053 113.35C111.075 113.346 111.096 113.336 111.111 113.319C111.179 113.274 111.235 113.214 111.276 113.143C111.316 113.073 111.34 112.994 111.344 112.913C111.347 112.891 111.344 112.869 111.337 112.849C111.329 112.829 111.317 112.811 111.3 112.796L111.263 112.79Z" fill="#455A64"/>
<path d="M113.159 111.627C113.124 111.628 113.089 111.619 113.058 111.602C113.021 111.577 112.991 111.543 112.971 111.502C112.952 111.462 112.944 111.417 112.948 111.372C112.954 111.266 112.986 111.163 113.041 111.073C113.096 110.982 113.172 110.906 113.263 110.852C113.299 110.824 113.342 110.807 113.388 110.803C113.433 110.8 113.478 110.81 113.518 110.833C113.557 110.856 113.589 110.89 113.609 110.931C113.628 110.972 113.635 111.018 113.629 111.063C113.624 111.167 113.594 111.269 113.542 111.359C113.49 111.45 113.417 111.526 113.329 111.583C113.278 111.614 113.219 111.63 113.159 111.627ZM113.314 110.965C113.245 111.01 113.189 111.07 113.148 111.141C113.107 111.211 113.083 111.29 113.077 111.372C113.075 111.394 113.078 111.416 113.087 111.436C113.095 111.456 113.108 111.474 113.125 111.488C113.145 111.496 113.167 111.498 113.188 111.494C113.21 111.491 113.23 111.482 113.247 111.469C113.315 111.424 113.371 111.364 113.412 111.294C113.452 111.223 113.476 111.144 113.481 111.063C113.483 111.042 113.48 111.02 113.473 110.999C113.465 110.979 113.453 110.961 113.436 110.946C113.416 110.939 113.394 110.937 113.373 110.941C113.351 110.944 113.331 110.952 113.314 110.965Z" fill="#455A64"/>
<path d="M117.431 106.08C117.395 106.08 117.36 106.071 117.327 106.055C117.29 106.029 117.26 105.995 117.241 105.955C117.222 105.914 117.213 105.869 117.217 105.825C117.222 105.72 117.252 105.619 117.304 105.528C117.356 105.438 117.429 105.361 117.516 105.305C117.553 105.279 117.597 105.264 117.641 105.26C117.686 105.257 117.731 105.266 117.772 105.286C117.809 105.31 117.839 105.345 117.859 105.385C117.878 105.426 117.886 105.471 117.882 105.516C117.877 105.62 117.848 105.722 117.796 105.812C117.744 105.903 117.671 105.979 117.583 106.036C117.537 106.063 117.485 106.078 117.431 106.08ZM117.583 105.418C117.515 105.463 117.459 105.523 117.418 105.594C117.378 105.664 117.354 105.743 117.349 105.825C117.347 105.846 117.35 105.868 117.357 105.888C117.365 105.908 117.377 105.927 117.393 105.941C117.414 105.948 117.436 105.95 117.457 105.947C117.479 105.944 117.499 105.935 117.516 105.922C117.584 105.877 117.641 105.817 117.682 105.747C117.723 105.676 117.747 105.597 117.753 105.516C117.753 105.459 117.753 105.415 117.705 105.399C117.685 105.392 117.663 105.39 117.642 105.393C117.62 105.397 117.6 105.405 117.583 105.418Z" fill="#455A64"/>
<path d="M115.295 107.313C115.26 107.313 115.225 107.304 115.194 107.285C115.157 107.261 115.127 107.226 115.107 107.186C115.088 107.145 115.08 107.1 115.084 107.055C115.089 106.951 115.118 106.849 115.17 106.759C115.223 106.668 115.296 106.592 115.383 106.535C115.42 106.51 115.462 106.494 115.507 106.491C115.551 106.488 115.596 106.496 115.635 106.516C115.673 106.541 115.704 106.575 115.724 106.616C115.744 106.656 115.753 106.701 115.749 106.746C115.742 106.852 115.71 106.954 115.655 107.045C115.6 107.136 115.524 107.211 115.434 107.266C115.392 107.293 115.345 107.309 115.295 107.313ZM115.45 106.649C115.382 106.694 115.325 106.754 115.284 106.824C115.243 106.895 115.219 106.974 115.213 107.055C115.213 107.112 115.229 107.156 115.261 107.172C115.281 107.179 115.303 107.181 115.324 107.178C115.346 107.174 115.366 107.166 115.383 107.153C115.451 107.108 115.507 107.047 115.548 106.977C115.588 106.906 115.612 106.827 115.617 106.746C115.62 106.725 115.617 106.704 115.61 106.684C115.602 106.664 115.589 106.646 115.572 106.633C115.553 106.624 115.531 106.621 115.509 106.624C115.487 106.626 115.467 106.635 115.45 106.649Z" fill="#455A64"/>
<path d="M119.577 101.775C119.542 101.775 119.507 101.767 119.476 101.75C119.438 101.725 119.407 101.691 119.387 101.651C119.367 101.61 119.359 101.565 119.363 101.52C119.367 101.416 119.397 101.314 119.449 101.224C119.501 101.133 119.574 101.057 119.662 101C119.699 100.974 119.742 100.959 119.787 100.956C119.832 100.952 119.877 100.961 119.917 100.981C119.955 101.006 119.985 101.04 120.004 101.081C120.024 101.121 120.032 101.166 120.027 101.211C120.023 101.315 119.993 101.417 119.941 101.508C119.889 101.598 119.816 101.675 119.728 101.731C119.682 101.758 119.63 101.773 119.577 101.775ZM119.816 101.085C119.785 101.087 119.754 101.096 119.728 101.113C119.66 101.159 119.604 101.219 119.564 101.289C119.523 101.36 119.5 101.439 119.495 101.52C119.492 101.541 119.495 101.563 119.503 101.584C119.51 101.604 119.523 101.622 119.539 101.636C119.559 101.644 119.581 101.646 119.603 101.642C119.624 101.639 119.644 101.63 119.662 101.618C119.73 101.573 119.787 101.512 119.828 101.442C119.869 101.371 119.893 101.292 119.898 101.211C119.901 101.189 119.898 101.167 119.889 101.147C119.881 101.126 119.868 101.109 119.851 101.095C119.837 101.087 119.822 101.085 119.807 101.088L119.816 101.085Z" fill="#455A64"/>
<path d="M108.89 112.244C108.854 112.244 108.818 112.235 108.786 112.219C108.749 112.194 108.719 112.16 108.699 112.119C108.68 112.079 108.672 112.034 108.676 111.989C108.683 111.883 108.715 111.781 108.77 111.69C108.824 111.6 108.9 111.524 108.991 111.469C109.027 111.441 109.07 111.424 109.115 111.421C109.161 111.417 109.206 111.428 109.246 111.45C109.285 111.473 109.317 111.507 109.336 111.548C109.356 111.589 109.363 111.635 109.356 111.68C109.351 111.784 109.321 111.886 109.269 111.976C109.217 112.066 109.144 112.143 109.057 112.2C109.007 112.23 108.949 112.245 108.89 112.244ZM109.126 111.554C109.096 111.556 109.067 111.566 109.041 111.583C108.974 111.628 108.918 111.688 108.877 111.758C108.837 111.829 108.813 111.908 108.808 111.989C108.805 112.01 108.808 112.032 108.815 112.052C108.823 112.071 108.836 112.089 108.852 112.102C108.872 112.111 108.894 112.114 108.916 112.111C108.938 112.108 108.958 112.1 108.975 112.087C109.042 112.041 109.098 111.981 109.139 111.91C109.179 111.84 109.203 111.761 109.208 111.68C109.211 111.659 109.209 111.637 109.201 111.616C109.194 111.596 109.181 111.578 109.164 111.564C109.155 111.552 109.141 111.544 109.126 111.542V111.554Z" fill="#455A64"/>
<path d="M97.6806 124.425C97.235 124.375 96.8162 124.187 96.4834 123.886C95.8533 123.432 95.1979 122.966 94.0921 123.606L94.0259 123.492C95.2074 122.809 95.9163 123.325 96.5621 123.779C97.1135 124.176 97.5892 124.516 98.2981 124.094C99.0069 123.672 99.155 122.453 99.3692 121.003C99.6496 119.113 99.9679 116.961 101.499 116.079C102.892 115.273 103.452 116.243 103.994 117.182C104.205 117.623 104.504 118.015 104.873 118.335C105.267 118.603 105.724 118.571 106.307 118.234C107.611 117.481 108.017 114.598 108.408 111.81C108.799 109.022 109.215 106.076 110.576 105.288C110.722 105.188 110.889 105.122 111.064 105.095C111.239 105.069 111.418 105.082 111.587 105.134C112.296 105.399 112.69 106.552 113.074 107.655C113.458 108.757 113.83 109.86 114.479 110.096C114.631 110.142 114.792 110.151 114.948 110.124C115.104 110.098 115.252 110.035 115.38 109.942C116.64 109.205 116.924 107.087 117.239 104.847C117.589 102.362 117.951 99.7877 119.652 98.8047L119.719 98.9181C118.071 99.8633 117.715 102.409 117.371 104.866C117.056 107.138 116.741 109.277 115.45 110.052C115.304 110.156 115.137 110.225 114.96 110.254C114.784 110.283 114.603 110.271 114.432 110.219C113.726 109.958 113.329 108.808 112.948 107.699C112.567 106.59 112.192 105.493 111.54 105.248C111.389 105.202 111.23 105.191 111.074 105.216C110.918 105.241 110.771 105.302 110.642 105.392C109.334 106.149 108.931 109.031 108.54 111.82C108.15 114.608 107.734 117.554 106.37 118.341C105.74 118.7 105.236 118.729 104.794 118.433C104.406 118.104 104.091 117.697 103.871 117.238C103.342 116.315 102.838 115.443 101.559 116.183C100.081 117.034 99.7694 119.148 99.4921 121.013C99.2716 122.497 99.0826 123.776 98.3548 124.198C98.1541 124.332 97.9214 124.41 97.6806 124.425Z" fill="#455A64"/>
<path d="M110.755 104.807C110.985 104.674 111.174 104.781 111.174 105.049C111.166 105.193 111.123 105.334 111.051 105.458C110.978 105.583 110.877 105.689 110.755 105.768C110.525 105.903 110.339 105.793 110.339 105.528C110.347 105.384 110.389 105.243 110.461 105.118C110.533 104.992 110.634 104.886 110.755 104.807Z" fill="#455A64"/>
<path d="M102.066 111.592C102.054 111.592 102.043 111.589 102.033 111.582C102.023 111.576 102.015 111.568 102.009 111.557C102.005 111.55 102.002 111.542 102.001 111.533C102 111.525 102.001 111.516 102.003 111.508C102.005 111.5 102.009 111.492 102.015 111.485C102.02 111.479 102.027 111.473 102.035 111.469L106.285 109.021L106.811 107.503C106.813 107.495 106.816 107.488 106.821 107.482C106.826 107.476 106.832 107.471 106.839 107.468L108.975 106.236C108.982 106.232 108.99 106.229 108.999 106.227C109.007 106.226 109.016 106.226 109.024 106.228C109.032 106.231 109.04 106.234 109.047 106.239C109.054 106.244 109.059 106.251 109.063 106.258C109.068 106.266 109.071 106.274 109.073 106.283C109.074 106.291 109.074 106.3 109.071 106.309C109.069 106.317 109.066 106.325 109.061 106.332C109.055 106.339 109.049 106.345 109.041 106.35L106.927 107.569L106.401 109.087C106.399 109.095 106.395 109.102 106.389 109.108C106.384 109.114 106.377 109.119 106.37 109.122L102.101 111.589C102.09 111.593 102.078 111.594 102.066 111.592Z" fill="#455A64"/>
<path d="M102.186 110.533C102.194 110.438 102.224 110.346 102.273 110.264C102.322 110.182 102.389 110.113 102.469 110.06L105.639 108.233C105.796 108.142 105.922 108.205 105.922 108.378C105.916 108.474 105.887 108.566 105.837 108.648C105.788 108.73 105.72 108.8 105.639 108.851L102.469 110.678C102.315 110.769 102.186 110.703 102.186 110.533Z" fill="#0C8CE9"/>
<g opacity="0.2">
<path d="M114.432 66.8416L130.832 57.3748C131.097 57.2196 131.314 57.3472 131.314 57.654V71.9302C131.306 72.0976 131.258 72.2606 131.174 72.4057C131.09 72.5507 130.973 72.6737 130.832 72.7645L114.432 82.2279C114.163 82.383 113.949 82.2589 113.949 81.9521V67.6759C113.958 67.5087 114.007 67.3459 114.091 67.2009C114.174 67.0559 114.291 66.9328 114.432 66.8416Z" fill="black"/>
</g>
<path d="M130.149 59.5843L115.752 67.8893C115.598 67.9901 115.469 68.126 115.377 68.286C115.284 68.4459 115.231 68.6254 115.221 68.8098V82.1517C115.231 82.3361 115.285 82.5155 115.377 82.675C115.47 82.8345 115.6 82.9695 115.756 83.0687L116.756 83.641C116.921 83.7244 117.104 83.7678 117.29 83.7678C117.476 83.7678 117.659 83.7244 117.824 83.641L132.228 75.3325C132.383 75.2318 132.512 75.0959 132.604 74.9359C132.696 74.7759 132.749 74.5964 132.759 74.412V61.0702C132.748 60.8875 132.694 60.71 132.601 60.5524C132.508 60.3948 132.379 60.2614 132.225 60.1635L131.215 59.5912C131.05 59.5068 130.868 59.4622 130.683 59.461C130.498 59.4598 130.315 59.502 130.149 59.5843Z" fill="#0C8CE9"/>
<path opacity="0.2" d="M117.835 83.6381C117.668 83.7182 117.485 83.7598 117.3 83.7598C117.115 83.7598 116.933 83.7182 116.766 83.6381L115.756 83.0624C115.6 82.9634 115.47 82.8284 115.377 82.6689C115.284 82.5093 115.231 82.3298 115.221 82.1453V68.8103C115.224 68.6183 115.278 68.4304 115.377 68.2656L117.445 69.4723C117.347 69.6285 117.292 69.8083 117.287 69.9928V83.3313C117.3 83.6415 117.521 83.8174 117.835 83.6381Z" fill="black"/>
<g opacity="0.2">
<path d="M132.752 60.9728C132.711 60.7039 132.494 60.6074 132.228 60.7591L117.835 69.0641C117.671 69.1629 117.537 69.3032 117.445 69.4709L115.377 68.2712C115.465 68.1174 115.591 67.9882 115.742 67.8954L130.139 59.5904C130.304 59.5078 130.487 59.4648 130.672 59.4648C130.856 59.4648 131.039 59.5078 131.204 59.5904L132.225 60.1627C132.366 60.2517 132.486 60.3703 132.577 60.5101C132.668 60.6499 132.728 60.8078 132.752 60.9728Z" fill="white"/>
</g>
<path d="M132.228 60.7637L117.835 69.0654C117.679 69.1657 117.55 69.3015 117.457 69.4615C117.364 69.6214 117.31 69.8011 117.3 69.9858V83.3312C117.3 83.6759 117.538 83.8069 117.835 83.638L132.228 75.3329C132.383 75.2322 132.512 75.0963 132.604 74.9363C132.696 74.7764 132.749 74.5969 132.759 74.4125V61.0706C132.759 60.7293 132.521 60.5914 132.228 60.7637Z" fill="white"/>
<path d="M132.335 61.1982V74.4125C132.325 74.5218 132.291 74.6275 132.236 74.7227C132.181 74.8178 132.107 74.9001 132.018 74.9641L117.728 83.2071V69.9859C117.738 69.8766 117.772 69.7709 117.827 69.6757C117.881 69.5806 117.956 69.4983 118.045 69.4343L132.335 61.1982ZM132.466 60.6983C132.382 60.7001 132.299 60.7251 132.228 60.7707L117.835 69.0654C117.679 69.1658 117.55 69.3015 117.457 69.4615C117.364 69.6215 117.31 69.8012 117.3 69.9859V83.3312C117.3 83.5726 117.421 83.7105 117.597 83.7105C117.681 83.7066 117.763 83.6817 117.835 83.6381L132.228 75.333C132.383 75.2322 132.512 75.0963 132.604 74.9364C132.696 74.7764 132.749 74.5969 132.759 74.4125V61.0706C132.759 60.8293 132.642 60.6914 132.466 60.6914V60.6983Z" fill="#0C8CE9"/>
<path d="M128.825 75.075V65.8254L127.998 65.3496V74.5993L128.825 75.075Z" fill="#0C8CE9"/>
<path opacity="0.2" d="M128.825 75.075V65.8254L127.998 65.3496V74.5993L128.825 75.075Z" fill="black"/>
<path d="M128.825 75.0755L131.221 73.693V64.4434L128.825 65.8258V75.0755Z" fill="#0C8CE9"/>
<path d="M131.221 64.4426L130.394 63.9668L127.998 65.3493L128.825 65.825L131.221 64.4426Z" fill="#0C8CE9"/>
<path opacity="0.25" d="M131.221 64.4426L130.394 63.9668L127.998 65.3493L128.825 65.825L131.221 64.4426Z" fill="white"/>
<path opacity="0.3" d="M131.235 64.4434L128.822 65.7913L127.998 65.3363L128.791 65.8672C128.774 66.1361 128.791 74.7859 128.825 75.0617C128.86 74.7859 128.877 66.1189 128.86 65.8568L131.235 64.4434Z" fill="white"/>
<path d="M124.333 77.6703V70.2375L123.509 69.7617V77.1911L124.333 77.6703Z" fill="#0C8CE9"/>
<path opacity="0.1" d="M124.333 77.6703V70.2375L123.509 69.7617V77.1911L124.333 77.6703Z" fill="white"/>
<path d="M124.333 77.6708L126.729 76.2849V68.8555L124.333 70.2379V77.6708Z" fill="#0C8CE9"/>
<path opacity="0.3" d="M124.333 77.6708L126.729 76.2849V68.8555L124.333 70.2379V77.6708Z" fill="white"/>
<path d="M126.729 68.8547L125.905 68.3789L123.509 69.7614L124.333 70.2371L126.729 68.8547Z" fill="#0C8CE9"/>
<path opacity="0.55" d="M126.729 68.8547L125.905 68.3789L123.509 69.7614L124.333 70.2371L126.729 68.8547Z" fill="white"/>
<path opacity="0.3" d="M124.364 70.2586L126.729 68.8555L124.34 70.2034C124.078 70.0552 123.516 69.7622 123.516 69.7622C123.516 69.7622 124.044 70.1069 124.309 70.2552C124.309 70.5379 124.309 77.3846 124.34 77.6673C124.34 77.4019 124.374 70.5275 124.364 70.2586Z" fill="white"/>
<path d="M119.841 80.2631V74.0265L119.017 73.5508V79.7839L119.841 80.2631Z" fill="#0C8CE9"/>
<path opacity="0.45" d="M119.841 80.2631V74.0265L119.017 73.5508V79.7839L119.841 80.2631Z" fill="black"/>
<path d="M119.841 80.2635L122.237 78.8776V72.6445L119.841 74.027V80.2635Z" fill="#0C8CE9"/>
<path opacity="0.3" d="M119.841 80.2635L122.237 78.8776V72.6445L119.841 74.027V80.2635Z" fill="black"/>
<path d="M122.237 72.6433L121.413 72.1641L119.017 73.55L119.841 74.0257L122.237 72.6433Z" fill="#0C8CE9"/>
<path opacity="0.15" d="M122.237 72.6433L121.413 72.1641L119.017 73.55L119.841 74.0257L122.237 72.6433Z" fill="black"/>
<path opacity="0.3" d="M122.237 72.6445L119.858 73.9891L119.034 73.5512L119.827 74.0684C119.827 74.0684 119.827 80.0912 119.858 80.2739C119.896 80.1015 119.896 74.0684 119.896 74.0684L122.237 72.6445Z" fill="white"/>
<g opacity="0.2">
<path d="M57.7455 112.719L85.1819 96.8906C85.4465 96.7394 85.6631 96.8631 85.6631 97.1691V140.761C85.6539 140.927 85.6055 141.09 85.5219 141.234C85.4383 141.379 85.3218 141.501 85.1819 141.592L57.7455 157.404C57.4774 157.559 57.2643 157.435 57.2643 157.126V113.551C57.2732 113.384 57.3214 113.222 57.4051 113.077C57.4887 112.933 57.6054 112.81 57.7455 112.719Z" fill="black"/>
</g>
<path d="M84.4978 99.0949L59.0619 113.765C58.9076 113.866 58.7793 114.001 58.6873 114.161C58.5953 114.32 58.5423 114.499 58.5326 114.683V157.34C58.5421 157.523 58.5954 157.701 58.6881 157.86C58.7808 158.018 58.9102 158.152 59.0654 158.25L60.0725 158.824C60.2378 158.908 60.4202 158.951 60.6053 158.951C60.7903 158.951 60.9728 158.908 61.1381 158.824L86.5739 144.158C86.728 144.057 86.8562 143.921 86.9482 143.762C87.0402 143.603 87.0933 143.424 87.1032 143.24V100.576C87.0937 100.393 87.0404 100.214 86.9477 100.055C86.8551 99.8956 86.7257 99.761 86.5705 99.662L85.5599 99.0915C85.3949 99.0089 85.2129 98.9662 85.0284 98.9668C84.844 98.9674 84.6622 99.0113 84.4978 99.0949Z" fill="#0C8CE9"/>
<path opacity="0.2" d="M61.1381 158.816C60.9722 158.898 60.79 158.94 60.6053 158.94C60.4206 158.94 60.2383 158.898 60.0725 158.816L59.0654 158.242C58.9102 158.144 58.7808 158.01 58.6881 157.852C58.5954 157.693 58.5421 157.515 58.5326 157.332V114.682C58.5397 114.489 58.5978 114.302 58.701 114.139L60.7634 115.331C60.6647 115.488 60.6101 115.669 60.6053 115.854V158.511C60.6053 158.82 60.8253 158.999 61.1381 158.816Z" fill="black"/>
<g opacity="0.2">
<path d="M87.0963 100.48C87.0551 100.212 86.8386 100.116 86.5739 100.271L61.138 114.938C60.9818 115.036 60.8529 115.172 60.7634 115.333L58.701 114.14C58.7892 113.987 58.9145 113.858 59.0653 113.765L84.5012 99.0951C84.6659 99.012 84.8478 98.9688 85.0323 98.9688C85.2167 98.9688 85.3986 99.012 85.5633 99.0951L86.5704 99.6657C86.7113 99.756 86.8311 99.8754 86.9219 100.016C87.0126 100.156 87.0721 100.315 87.0963 100.48Z" fill="white"/>
</g>
<path d="M86.5739 100.27L61.1381 114.937C60.9831 115.037 60.8541 115.172 60.7615 115.332C60.6689 115.491 60.6154 115.67 60.6053 115.854V158.511C60.6053 158.855 60.8425 158.989 61.1381 158.817L86.5739 144.15C86.728 144.049 86.8562 143.914 86.9482 143.754C87.0402 143.595 87.0933 143.416 87.1033 143.232V100.576C87.1033 100.235 86.8661 100.101 86.5739 100.27Z" fill="white"/>
<path d="M86.6805 100.696V143.232C86.6701 143.341 86.6362 143.447 86.581 143.542C86.5258 143.637 86.4507 143.719 86.3608 143.782L61.0315 158.39V115.854C61.0419 115.745 61.0755 115.64 61.1301 115.545C61.1846 115.45 61.2588 115.368 61.3477 115.304L86.6805 100.696ZM86.8111 100.197C86.7269 100.199 86.6448 100.224 86.5739 100.269L61.1381 114.936C60.9831 115.036 60.8541 115.172 60.7615 115.331C60.6689 115.491 60.6154 115.67 60.6053 115.854V158.511C60.6053 158.751 60.7256 158.892 60.9009 158.892C60.9853 158.889 61.0671 158.862 61.1381 158.817L86.5739 144.15C86.728 144.049 86.8562 143.914 86.9482 143.754C87.0402 143.595 87.0933 143.416 87.1033 143.232V100.575C87.1033 100.335 86.983 100.197 86.8111 100.197Z" fill="#0C8CE9"/>
<path d="M69.2844 116.789V120.45C67.7033 121.364 66.4211 123.815 66.4211 125.925L63.6713 127.51C63.6748 123.378 66.1874 118.576 69.2844 116.789Z" fill="#0C8CE9"/>
<path d="M67.2256 128.115L65.2491 131.8C64.218 130.968 63.6749 129.494 63.6749 127.51L66.4247 125.926C66.4213 126.957 66.7272 127.699 67.2256 128.115Z" fill="#0C8CE9"/>
<g opacity="0.3">
<path d="M67.2256 128.115L65.2491 131.8C64.218 130.968 63.6749 129.494 63.6749 127.51L66.4247 125.926C66.4213 126.957 66.7272 127.699 67.2256 128.115Z" fill="black"/>
</g>
<path d="M74.8975 121.031C74.8975 125.156 72.3849 129.968 69.2845 131.755C67.6724 132.683 66.3696 132.697 65.2491 131.8L67.2255 128.115C67.7445 128.534 68.4767 128.559 69.2879 128.091C70.8725 127.177 72.1546 124.726 72.1546 122.615C72.1546 120.505 70.8725 119.522 69.2879 120.45V116.789C72.3849 114.998 74.8975 116.899 74.8975 121.031Z" fill="#0C8CE9"/>
<g opacity="0.4">
<path d="M74.8975 121.031C74.8975 125.156 72.3849 129.968 69.2845 131.755C67.6724 132.683 66.3696 132.697 65.2491 131.8L67.2255 128.115C67.7445 128.534 68.4767 128.559 69.2879 128.091C70.8725 127.177 72.1546 124.726 72.1546 122.615C72.1546 120.505 70.8725 119.522 69.2879 120.45V116.789C72.3849 114.998 74.8975 116.899 74.8975 121.031Z" fill="white"/>
</g>
<path d="M78.3485 114.514L76.7158 115.459C76.7057 115.465 76.6973 115.474 76.6913 115.484C76.6853 115.494 76.6819 115.506 76.6814 115.517V117.405C76.6814 117.425 76.6814 117.435 76.7158 117.425L78.3485 116.48C78.3585 116.475 78.3669 116.467 78.373 116.457C78.379 116.447 78.3824 116.436 78.3829 116.425V114.534C78.3829 114.514 78.3691 114.503 78.3485 114.514Z" fill="#0C8CE9"/>
<path opacity="0.4" d="M78.3485 114.514L76.7158 115.459C76.7057 115.465 76.6973 115.474 76.6913 115.484C76.6853 115.494 76.6819 115.506 76.6814 115.517V117.405C76.6814 117.425 76.6814 117.435 76.7158 117.425L78.3485 116.48C78.3585 116.475 78.3669 116.467 78.373 116.457C78.379 116.447 78.3824 116.436 78.3829 116.425V114.534C78.3829 114.514 78.3691 114.503 78.3485 114.514Z" fill="white"/>
<path d="M79.5585 114.493C79.537 114.492 79.516 114.486 79.4974 114.475C79.4789 114.465 79.4632 114.449 79.4519 114.431C79.4367 114.403 79.4329 114.37 79.4412 114.34C79.4495 114.309 79.4694 114.283 79.4966 114.266L84.0957 111.633C84.1094 111.625 84.1246 111.62 84.1404 111.618C84.1561 111.616 84.1721 111.617 84.1874 111.621C84.2027 111.626 84.2171 111.633 84.2297 111.642C84.2422 111.652 84.2528 111.664 84.2607 111.678C84.2686 111.692 84.2737 111.707 84.2757 111.723C84.2777 111.738 84.2766 111.754 84.2725 111.77C84.2683 111.785 84.2612 111.799 84.2515 111.812C84.2418 111.824 84.2298 111.835 84.216 111.843L79.6272 114.476C79.6066 114.489 79.5826 114.495 79.5585 114.493Z" fill="#455A64"/>
<path d="M79.5585 115.535C79.531 115.536 79.5039 115.528 79.4817 115.512C79.4594 115.496 79.4433 115.473 79.4361 115.446C79.4288 115.42 79.4309 115.392 79.4419 115.366C79.4529 115.341 79.4722 115.321 79.4966 115.308L84.0957 112.678C84.1094 112.67 84.1246 112.665 84.1404 112.663C84.1561 112.661 84.1721 112.662 84.1875 112.666C84.2028 112.67 84.2172 112.678 84.2298 112.687C84.2423 112.697 84.2528 112.709 84.2607 112.723C84.2686 112.737 84.2738 112.752 84.2759 112.768C84.278 112.783 84.2769 112.8 84.2727 112.815C84.2686 112.83 84.2614 112.845 84.2517 112.857C84.2419 112.87 84.2298 112.88 84.216 112.888L79.6272 115.518C79.6066 115.53 79.5826 115.536 79.5585 115.535Z" fill="#455A64"/>
<path d="M78.3485 118.377L76.7158 119.322C76.7057 119.329 76.6973 119.337 76.6913 119.347C76.6853 119.357 76.6819 119.369 76.6814 119.381V121.268C76.6814 121.288 76.6814 121.299 76.7158 121.288L78.3485 120.343C78.3585 120.338 78.3669 120.33 78.373 120.32C78.379 120.311 78.3824 120.3 78.3829 120.288V118.398C78.3829 118.377 78.3691 118.367 78.3485 118.377Z" fill="#0C8CE9"/>
<path d="M79.5585 118.357C79.537 118.356 79.516 118.35 79.4974 118.339C79.4789 118.328 79.4632 118.313 79.4519 118.295C79.4367 118.267 79.4329 118.234 79.4412 118.203C79.4495 118.172 79.4694 118.146 79.4966 118.13L84.0957 115.497C84.1094 115.489 84.1246 115.484 84.1404 115.481C84.1561 115.479 84.1722 115.48 84.1875 115.485C84.2028 115.489 84.2172 115.496 84.2298 115.506C84.2423 115.515 84.2528 115.528 84.2607 115.541C84.2686 115.555 84.2738 115.57 84.2759 115.586C84.278 115.602 84.2769 115.618 84.2727 115.633C84.2686 115.649 84.2614 115.663 84.2517 115.675C84.2419 115.688 84.2298 115.699 84.216 115.706L79.6272 118.339C79.6066 118.352 79.5826 118.358 79.5585 118.357Z" fill="#455A64"/>
<path d="M79.5585 119.398C79.531 119.399 79.5039 119.391 79.4817 119.375C79.4594 119.359 79.4433 119.336 79.4361 119.31C79.4288 119.283 79.4309 119.255 79.4419 119.23C79.4529 119.204 79.4722 119.184 79.4966 119.171L84.0957 116.542C84.1094 116.534 84.1246 116.528 84.1404 116.526C84.1561 116.524 84.1721 116.525 84.1875 116.53C84.2028 116.534 84.2172 116.541 84.2298 116.551C84.2423 116.56 84.2528 116.572 84.2607 116.586C84.2686 116.6 84.2738 116.615 84.2759 116.631C84.278 116.647 84.2769 116.663 84.2727 116.678C84.2686 116.693 84.2614 116.708 84.2517 116.72C84.2419 116.733 84.2298 116.743 84.216 116.751L79.6272 119.381C79.6066 119.394 79.5826 119.4 79.5585 119.398Z" fill="#455A64"/>
<path d="M78.3485 122.24L76.7158 123.186C76.7057 123.192 76.6973 123.2 76.6913 123.211C76.6853 123.221 76.6819 123.232 76.6814 123.244V125.131C76.6814 125.152 76.6814 125.162 76.7158 125.152L78.3485 124.206C78.3585 124.201 78.3669 124.193 78.373 124.184C78.379 124.174 78.3824 124.163 78.3829 124.152V122.261C78.3829 122.24 78.3691 122.23 78.3485 122.24Z" fill="#0C8CE9"/>
<path opacity="0.3" d="M78.3485 122.24L76.7158 123.186C76.7057 123.192 76.6973 123.2 76.6913 123.211C76.6853 123.221 76.6819 123.232 76.6814 123.244V125.131C76.6814 125.152 76.6814 125.162 76.7158 125.152L78.3485 124.206C78.3585 124.201 78.3669 124.193 78.373 124.184C78.379 124.174 78.3824 124.163 78.3829 124.152V122.261C78.3829 122.24 78.3691 122.23 78.3485 122.24Z" fill="black"/>
<path d="M79.5585 122.221C79.537 122.22 79.516 122.214 79.4974 122.203C79.4788 122.192 79.4632 122.177 79.4519 122.159C79.4439 122.145 79.4388 122.13 79.4367 122.114C79.4346 122.098 79.4357 122.082 79.4399 122.067C79.444 122.052 79.4512 122.037 79.4609 122.025C79.4706 122.012 79.4828 122.002 79.4966 121.994L84.0957 119.361C84.1236 119.346 84.1564 119.342 84.1871 119.35C84.2178 119.358 84.2442 119.378 84.2607 119.405C84.2686 119.419 84.2738 119.434 84.2759 119.45C84.2779 119.466 84.2769 119.482 84.2727 119.497C84.2686 119.513 84.2614 119.527 84.2517 119.539C84.2419 119.552 84.2298 119.563 84.216 119.57L79.6272 122.2C79.607 122.214 79.583 122.221 79.5585 122.221Z" fill="#455A64"/>
<path d="M79.5585 123.261C79.537 123.261 79.516 123.254 79.4974 123.244C79.4789 123.233 79.4632 123.218 79.4519 123.199C79.4367 123.171 79.4329 123.139 79.4412 123.108C79.4495 123.077 79.4694 123.051 79.4966 123.034L84.0957 120.405C84.1094 120.397 84.1246 120.392 84.1404 120.39C84.1561 120.388 84.1722 120.389 84.1875 120.393C84.2028 120.397 84.2172 120.404 84.2298 120.414C84.2423 120.424 84.2528 120.436 84.2607 120.45C84.2686 120.463 84.2738 120.479 84.2759 120.494C84.278 120.51 84.2769 120.526 84.2727 120.541C84.2686 120.557 84.2614 120.571 84.2517 120.584C84.2419 120.596 84.2298 120.607 84.216 120.615L79.6272 123.23C79.6083 123.248 79.5842 123.259 79.5585 123.261Z" fill="#455A64"/>
<path d="M63.6748 139.768C63.6536 139.767 63.6327 139.762 63.6141 139.752C63.5955 139.742 63.5797 139.727 63.5682 139.709C63.5603 139.695 63.5551 139.68 63.553 139.664C63.551 139.649 63.552 139.633 63.5562 139.617C63.5603 139.602 63.5675 139.588 63.5772 139.575C63.587 139.562 63.5991 139.552 63.6129 139.544L84.0957 127.74C84.1238 127.726 84.1563 127.723 84.1868 127.731C84.2173 127.739 84.2436 127.759 84.2607 127.785C84.2769 127.813 84.2814 127.847 84.273 127.879C84.2646 127.91 84.2441 127.937 84.216 127.954L63.7539 139.754C63.7295 139.766 63.7019 139.771 63.6748 139.768Z" fill="#455A64"/>
<path d="M63.6748 141.885C63.6533 141.884 63.6324 141.878 63.6138 141.867C63.5952 141.856 63.5795 141.841 63.5682 141.823C63.5603 141.809 63.5551 141.794 63.553 141.778C63.551 141.763 63.552 141.747 63.5562 141.731C63.5603 141.716 63.5675 141.701 63.5772 141.689C63.587 141.676 63.5991 141.666 63.6129 141.658L84.0957 129.858C84.1094 129.85 84.1246 129.845 84.1404 129.843C84.1561 129.841 84.1721 129.842 84.1874 129.846C84.2027 129.85 84.2171 129.857 84.2297 129.867C84.2422 129.877 84.2528 129.889 84.2607 129.903C84.2686 129.916 84.2737 129.931 84.2757 129.947C84.2777 129.963 84.2766 129.979 84.2725 129.994C84.2683 130.01 84.2612 130.024 84.2515 130.037C84.2418 130.049 84.2297 130.06 84.216 130.068L63.7539 141.868C63.7298 141.881 63.7023 141.887 63.6748 141.885Z" fill="#455A64"/>
<path d="M63.6748 143.998C63.6474 144 63.6203 143.992 63.598 143.976C63.5757 143.959 63.5596 143.936 63.5524 143.91C63.5452 143.883 63.5472 143.855 63.5582 143.83C63.5693 143.805 63.5886 143.784 63.6129 143.771L84.0957 131.971C84.1094 131.963 84.1246 131.958 84.1404 131.956C84.1561 131.954 84.1721 131.955 84.1874 131.959C84.2027 131.963 84.2171 131.971 84.2297 131.98C84.2422 131.99 84.2528 132.002 84.2607 132.016C84.2686 132.03 84.2737 132.045 84.2757 132.06C84.2777 132.076 84.2766 132.092 84.2725 132.108C84.2683 132.123 84.2612 132.137 84.2515 132.15C84.2418 132.162 84.2298 132.173 84.216 132.181L63.7539 143.981C63.7298 143.994 63.7023 144 63.6748 143.998Z" fill="#455A64"/>
<path d="M63.6748 146.112C63.6474 146.114 63.6203 146.106 63.598 146.09C63.5757 146.074 63.5596 146.05 63.5524 146.024C63.5452 145.997 63.5472 145.969 63.5582 145.944C63.5693 145.919 63.5886 145.898 63.6129 145.886L84.0957 134.085C84.1236 134.07 84.1564 134.066 84.1871 134.075C84.2179 134.083 84.2442 134.103 84.2607 134.13C84.2686 134.144 84.2738 134.159 84.2759 134.175C84.2779 134.19 84.2769 134.206 84.2727 134.222C84.2686 134.237 84.2614 134.252 84.2517 134.264C84.2419 134.277 84.2298 134.287 84.216 134.295L63.7539 146.095C63.7298 146.109 63.7023 146.115 63.6748 146.112Z" fill="#455A64"/>
<path d="M63.6748 148.228C63.6474 148.229 63.6203 148.221 63.598 148.205C63.5757 148.189 63.5596 148.166 63.5524 148.139C63.5452 148.113 63.5472 148.084 63.5582 148.059C63.5693 148.034 63.5886 148.013 63.6129 148.001L84.0957 136.201C84.1236 136.185 84.1564 136.182 84.1871 136.19C84.2179 136.198 84.2442 136.218 84.2607 136.245C84.2686 136.259 84.2738 136.274 84.2759 136.29C84.2779 136.306 84.2769 136.322 84.2727 136.337C84.2686 136.352 84.2614 136.367 84.2517 136.379C84.2419 136.392 84.2298 136.402 84.216 136.41L63.7539 148.214C63.7295 148.226 63.7019 148.231 63.6748 148.228Z" fill="#455A64"/>
<path d="M63.6748 150.342C63.6536 150.342 63.6327 150.336 63.6141 150.326C63.5955 150.316 63.5797 150.301 63.5682 150.283C63.5603 150.27 63.5551 150.254 63.553 150.239C63.551 150.223 63.552 150.207 63.5562 150.192C63.5603 150.176 63.5675 150.162 63.5772 150.149C63.587 150.137 63.5991 150.126 63.6129 150.118L84.0957 138.315C84.1238 138.3 84.1563 138.297 84.1868 138.305C84.2173 138.313 84.2436 138.333 84.2607 138.359C84.2769 138.388 84.2814 138.421 84.273 138.453C84.2646 138.484 84.2441 138.511 84.216 138.528L63.7539 150.328C63.7295 150.341 63.7019 150.345 63.6748 150.342Z" fill="#455A64"/>
<g opacity="0.2">
<path d="M64.9015 77.263V101.7C64.8849 102.016 64.7939 102.323 64.6358 102.597C64.4778 102.87 64.2573 103.103 63.9923 103.275L29.831 123.001C29.7399 123.056 29.6356 123.086 29.5291 123.087C29.4896 123.086 29.4504 123.08 29.4124 123.07C29.3863 123.065 29.3608 123.057 29.337 123.046C29.3082 123.033 29.2807 123.018 29.2546 123.001C29.1504 122.923 29.0688 122.819 29.0178 122.699C28.9526 122.555 28.9198 122.398 28.9218 122.239V98.0218C28.9397 97.7065 29.0314 97.3998 29.1893 97.1263C29.3472 96.8528 29.567 96.6201 29.831 96.4469L63.9991 76.738C64.087 76.6764 64.1886 76.6373 64.2951 76.6241C64.4016 76.6109 64.5097 76.6241 64.6099 76.6625C64.6386 76.6726 64.6653 76.6877 64.6888 76.7071C64.7127 76.7241 64.7335 76.745 64.7506 76.7689C64.7605 76.7784 64.7697 76.7887 64.778 76.7997C64.7897 76.8142 64.799 76.8304 64.8054 76.8478C64.8286 76.8842 64.847 76.9234 64.8603 76.9644C64.8708 76.9897 64.8778 77.0162 64.8809 77.0434C64.8825 77.0466 64.8833 77.0501 64.8833 77.0537C64.8833 77.0572 64.8825 77.0607 64.8809 77.0639C64.8831 77.0914 64.8831 77.1189 64.8809 77.1463C64.8981 77.1772 64.9015 77.2252 64.9015 77.263Z" fill="black"/>
</g>
<path d="M69.0876 79.8435V104.284C69.0705 104.599 68.9792 104.906 68.8212 105.179C68.6632 105.452 68.4429 105.684 68.1784 105.856L34.0069 125.582C33.9171 125.637 33.8138 125.667 33.7084 125.667C33.6696 125.671 33.6305 125.671 33.5917 125.667L33.5128 125.64L33.4339 125.599C33.3303 125.518 33.2479 125.413 33.1937 125.293C33.1301 125.148 33.0973 124.992 33.0976 124.834V100.602C33.1153 100.287 33.2068 99.9811 33.3648 99.7081C33.5227 99.4351 33.7427 99.2031 34.0069 99.0308L68.1784 79.3185C68.2661 79.2566 68.3677 79.2173 68.4743 79.2041C68.5808 79.191 68.689 79.2043 68.7891 79.243C68.8161 79.2546 68.8415 79.2696 68.8646 79.2876C68.8865 79.3057 68.9061 79.3264 68.9229 79.3494C68.9347 79.357 68.9441 79.3677 68.9504 79.3802C68.9631 79.3946 68.9735 79.4108 68.9813 79.4283C69.0044 79.4647 69.0228 79.5039 69.0362 79.5449C69.0454 79.5717 69.0523 79.5993 69.0568 79.6273C69.0587 79.6547 69.0587 79.6822 69.0568 79.7096C69.0842 79.768 69.0876 79.8057 69.0876 79.8435Z" fill="white"/>
<path d="M68.5798 79.5198C68.6035 79.5142 68.6282 79.5142 68.6519 79.5198H68.669L68.6931 79.5507L68.7136 79.5816L68.748 79.6811V79.6982V79.7154C68.7497 79.7439 68.7497 79.7726 68.748 79.8012V104.283C68.7314 104.542 68.6553 104.793 68.5256 105.017C68.3958 105.242 68.2159 105.433 68 105.576L33.849 125.299C33.8073 125.327 33.7585 125.343 33.7084 125.344H33.6569L33.6191 125.327C33.5703 125.275 33.5298 125.216 33.4991 125.152C33.4573 125.052 33.4363 124.944 33.4373 124.836V100.601C33.4563 100.343 33.5335 100.093 33.6631 99.8687C33.7926 99.6447 33.9711 99.4529 34.1853 99.3076L68.3534 79.5987C68.4268 79.5526 68.5105 79.5255 68.597 79.5198M68.597 79.1973C68.455 79.2019 68.3167 79.2432 68.1955 79.3174L34.0069 99.0297C33.7427 99.202 33.5227 99.434 33.3648 99.707C33.2068 99.98 33.1153 100.286 33.0976 100.601V124.819C33.0973 124.977 33.1301 125.134 33.1937 125.279C33.2479 125.398 33.3303 125.503 33.4339 125.584L33.5128 125.625L33.5917 125.653C33.6305 125.656 33.6696 125.656 33.7084 125.653C33.8101 125.648 33.9091 125.619 33.9966 125.567L68.1681 105.841C68.4327 105.669 68.6529 105.437 68.8109 105.164C68.9689 104.891 69.0602 104.584 69.0774 104.269V79.8423C69.0774 79.8046 69.0774 79.7668 69.0774 79.7291C69.0793 79.7017 69.0793 79.6742 69.0774 79.6468C69.0729 79.6188 69.066 79.5912 69.0568 79.5644C69.0434 79.5234 69.025 79.4842 69.0019 79.4477C68.9941 79.4303 68.9837 79.4141 68.971 79.3997C68.9647 79.3872 68.9553 79.3765 68.9435 79.3688C68.9267 79.3459 68.9071 79.3252 68.8852 79.3071C68.8621 79.289 68.8367 79.274 68.8097 79.2625C68.7442 79.2319 68.6727 79.2167 68.6004 79.2179L68.597 79.1973Z" fill="#E0E0E0"/>
<path d="M68.7891 79.2349C68.6889 79.1963 68.5808 79.1829 68.4742 79.1961C68.3677 79.2093 68.266 79.2485 68.1783 79.3104L34.0068 99.0296C33.7426 99.2019 33.5227 99.4339 33.3647 99.7069C33.2068 99.9799 33.1152 100.286 33.0976 100.601V103.569L30.7678 102.224V99.2767C30.7843 98.9619 30.8749 98.6555 31.0323 98.3824C31.1897 98.1093 31.4095 97.8772 31.6736 97.7052L65.8588 77.9997C65.9528 77.9306 66.0642 77.8888 66.1805 77.8791C66.2968 77.8694 66.4135 77.8922 66.5176 77.9448C66.6686 78.0443 68.6038 79.1389 68.7891 79.2349Z" fill="#37474F"/>
<path d="M69.0842 79.8363C69.0842 79.2632 68.6759 79.0334 68.1784 79.3216L34.0069 99.0305C33.7427 99.2025 33.523 99.4346 33.3656 99.7077C33.2082 99.9808 33.1175 100.287 33.101 100.602V103.573L69.0842 82.818V79.8363Z" fill="#455A64"/>
<path d="M30.7678 102.225V99.2745C30.7796 98.9529 30.8742 98.6397 31.0423 98.3652L33.3721 99.6931C33.2056 99.9656 33.1122 100.276 33.101 100.596V103.567L30.7678 102.225Z" fill="#263238"/>
<path d="M63.9339 83.0274C63.77 83.1559 63.6382 83.3208 63.5489 83.5089C63.4596 83.6971 63.4152 83.9034 63.4192 84.1116C63.4192 84.5474 63.6491 84.7704 63.9339 84.6057C64.096 84.4751 64.2263 84.3093 64.3149 84.1208C64.4035 83.9324 64.448 83.7262 64.4451 83.518C64.4451 83.0823 64.2152 82.8627 63.9339 83.0274Z" fill="#FAFAFA"/>
<path d="M65.7799 81.9572C65.6171 82.0875 65.4861 82.2532 65.397 82.4416C65.3078 82.6301 65.2627 82.8364 65.2652 83.0449C65.2652 83.4807 65.4951 83.7003 65.7799 83.539C65.942 83.4083 66.0723 83.2425 66.1609 83.0541C66.2494 82.8656 66.294 82.6595 66.2911 82.4513C66.2911 82.0155 66.0612 81.7959 65.7799 81.9572Z" fill="#FAFAFA"/>
<path d="M67.6259 80.8898C67.4642 81.0201 67.3342 81.1854 67.2456 81.3732C67.1571 81.561 67.1123 81.7665 67.1147 81.9741C67.1147 82.4133 67.3445 82.6329 67.6259 82.4682C67.7898 82.3396 67.9216 82.1748 68.0109 81.9866C68.1002 81.7985 68.1446 81.5922 68.1406 81.3839C68.1406 80.9516 67.9176 80.7251 67.6259 80.8898Z" fill="#FAFAFA"/>
<path d="M33.4338 125.584L33.3206 125.519L31.1487 124.27C31.0308 124.193 30.9351 124.087 30.8707 123.961C30.8018 123.811 30.7666 123.647 30.7678 123.481V102.225L33.0976 103.566V124.816C33.1006 124.974 33.1332 125.13 33.1937 125.276C33.2472 125.397 33.3296 125.503 33.4338 125.584Z" fill="#E0E0E0"/>
<path d="M67.2999 93.8898L34.8852 112.593V104.345L67.2999 85.6445V93.8898Z" fill="#E0E0E0"/>
<path d="M57.0577 109.843L34.8852 122.621V114.376L57.0577 101.598V109.843Z" fill="#E0E0E0"/>
<path d="M67.3 103.847L58.9449 108.661V100.416L67.3 95.6016V103.847Z" fill="#E0E0E0"/>
<path d="M84.9331 44.8371V61.6275C84.9229 61.7642 84.8828 61.8971 84.8156 62.0166C84.7485 62.1362 84.6559 62.2395 84.5444 62.3193L66.9378 72.4752V55.6926C66.948 55.5558 66.9881 55.423 67.0552 55.3035C67.1224 55.1839 67.215 55.0806 67.3264 55.0007L84.9331 44.8371ZM85.0574 44.2891C84.957 44.2923 84.8592 44.3218 84.7737 44.3746L67.0971 54.5849C66.9118 54.707 66.7577 54.8708 66.647 55.0631C66.5363 55.2554 66.4722 55.471 66.4597 55.6926V72.5685C66.4597 72.86 66.6035 73.0271 66.8134 73.0271C66.9141 73.0222 67.0118 72.9914 67.0971 72.9377L84.7698 62.7274C84.955 62.6067 85.1095 62.4444 85.2208 62.2535C85.3322 62.0625 85.3973 61.8481 85.4111 61.6275V44.7438C85.4111 44.4562 85.2673 44.2891 85.0574 44.2891Z" fill="#455A64"/>
<path d="M118.72 32.2362L73.2458 58.4907C73.0591 58.6117 72.9038 58.7752 72.7923 58.9677C72.6808 59.1602 72.6165 59.3763 72.6045 59.5984V75.6426C72.6166 75.8641 72.6814 76.0795 72.7937 76.2708C72.9059 76.4622 73.0622 76.6239 73.2497 76.7425L74.4662 77.4305C74.6646 77.5303 74.8835 77.5823 75.1056 77.5823C75.3276 77.5823 75.5466 77.5303 75.7449 77.4305L121.219 51.1721C121.406 51.052 121.561 50.8892 121.672 50.6974C121.784 50.5055 121.848 50.2899 121.86 50.0683V34.0319C121.849 33.8102 121.784 33.5946 121.672 33.4032C121.56 33.2117 121.403 33.0501 121.215 32.932L119.999 32.2401C119.801 32.1394 119.582 32.0866 119.36 32.0859C119.138 32.0853 118.918 32.1368 118.72 32.2362Z" fill="#0C8CE9"/>
<path opacity="0.8" d="M118.72 32.2362L73.2458 58.4907C73.0591 58.6117 72.9038 58.7752 72.7923 58.9677C72.6808 59.1602 72.6165 59.3763 72.6045 59.5984V75.6426C72.6166 75.8641 72.6814 76.0795 72.7937 76.2708C72.9059 76.4622 73.0622 76.6239 73.2497 76.7425L74.4662 77.4305C74.6646 77.5303 74.8835 77.5823 75.1056 77.5823C75.3276 77.5823 75.5466 77.5303 75.7449 77.4305L121.219 51.1721C121.406 51.052 121.561 50.8892 121.672 50.6974C121.784 50.5055 121.848 50.2899 121.86 50.0683V34.0319C121.849 33.8102 121.784 33.5946 121.672 33.4032C121.56 33.2117 121.403 33.0501 121.215 32.932L119.999 32.2401C119.801 32.1394 119.582 32.0866 119.36 32.0859C119.138 32.0853 118.918 32.1368 118.72 32.2362Z" fill="white"/>
<path opacity="0.5" d="M75.7527 77.4264C75.5529 77.5234 75.3336 77.5738 75.1114 77.5738C74.8893 77.5738 74.67 77.5234 74.4701 77.4264L73.2575 76.7307C73.0701 76.6129 72.9138 76.4519 72.8015 76.2612C72.6892 76.0705 72.6244 75.8557 72.6123 75.6347V59.5983C72.622 59.3662 72.6931 59.1409 72.8183 58.9453L75.3058 60.3834C75.1876 60.5727 75.1219 60.79 75.1153 61.013V77.0572C75.1153 77.4303 75.3796 77.6441 75.7527 77.4264Z" fill="#0C8CE9"/>
<path opacity="0.3" d="M121.853 33.9031C121.802 33.5805 121.542 33.4678 121.223 33.6505L75.7489 59.905C75.5603 60.0233 75.4051 60.1879 75.298 60.383L72.8066 58.945C72.9123 58.7587 73.0634 58.6023 73.2458 58.4902L118.72 32.2319C118.918 32.1321 119.137 32.0801 119.359 32.0801C119.581 32.0801 119.8 32.1321 119.999 32.2319L121.215 32.9198C121.386 33.0281 121.531 33.172 121.641 33.3417C121.751 33.5115 121.823 33.703 121.853 33.9031Z" fill="#0C8CE9"/>
<path d="M121.223 33.6417L75.7528 59.9039C75.5675 60.026 75.4134 60.1898 75.3027 60.3821C75.192 60.5745 75.1279 60.7901 75.1154 61.0116V77.0558C75.1154 77.4639 75.403 77.6271 75.7528 77.4445L121.227 51.1861C121.413 51.0659 121.569 50.9032 121.68 50.7113C121.792 50.5195 121.856 50.3039 121.868 50.0823V34.0303C121.864 33.6106 121.577 33.4434 121.223 33.6417Z" fill="#0C8CE9"/>
<path opacity="0.8" d="M121.223 33.6417L75.7528 59.9039C75.5675 60.026 75.4134 60.1898 75.3027 60.3821C75.192 60.5745 75.1279 60.7901 75.1154 61.0116V77.0558C75.1154 77.4639 75.403 77.6271 75.7528 77.4445L121.227 51.1861C121.413 51.0659 121.569 50.9032 121.68 50.7113C121.792 50.5195 121.856 50.3039 121.868 50.0823V34.0303C121.864 33.6106 121.577 33.4434 121.223 33.6417Z" fill="white"/>
<g opacity="0.3">
<path d="M121.305 34.2291V50.0634C121.293 50.1881 121.255 50.3088 121.192 50.4175C121.13 50.5261 121.045 50.6201 120.943 50.693L75.6634 76.8425V61.0121C75.6753 60.887 75.7141 60.766 75.7771 60.6573C75.8402 60.5486 75.9261 60.4548 76.0288 60.3825L121.305 34.2291ZM121.503 33.5605C121.401 33.5658 121.302 33.5966 121.215 33.6499L75.7528 59.9044C75.5675 60.0265 75.4134 60.1903 75.3027 60.3827C75.192 60.575 75.1279 60.7906 75.1154 61.0121V77.0563C75.1154 77.3439 75.2592 77.511 75.4691 77.511C75.5695 77.5078 75.6673 77.4783 75.7528 77.4255L121.227 51.1672C121.413 51.047 121.569 50.8843 121.68 50.6924C121.792 50.5005 121.856 50.285 121.868 50.0634V34.0308C121.868 33.7393 121.724 33.5722 121.515 33.5722L121.503 33.5605Z" fill="#0C8CE9"/>
</g>
<path d="M88.1434 56.4799C88.5847 56.199 89.0798 56.0137 89.597 55.9358C89.9585 55.8815 90.3271 55.9677 90.627 56.1767C90.9294 56.4214 91.1503 56.7521 91.2605 57.1251C91.4213 57.6284 91.5116 58.1516 91.5287 58.6798C91.5559 59.4066 91.5559 60.1528 91.5287 60.9146C91.5002 61.5463 91.4104 62.1737 91.2605 62.788C91.1176 63.3687 90.9076 63.9309 90.6348 64.4631C90.3634 64.9862 90.0221 65.47 89.6204 65.9012C89.2032 66.3378 88.7254 66.7121 88.2017 67.0128L85.3489 68.6607C85.3176 68.6826 85.2803 68.6944 85.242 68.6944C85.2038 68.6944 85.1665 68.6826 85.1351 68.6607C85.1017 68.6316 85.0757 68.5949 85.0595 68.5536C85.0433 68.5123 85.0372 68.4677 85.0419 68.4236V58.6798C85.0439 58.5597 85.076 58.4422 85.1351 58.3377C85.183 58.2383 85.2568 58.1537 85.3489 58.0929L88.1434 56.4799ZM90.0013 59.5892C89.9931 59.3116 89.9446 59.0367 89.8575 58.773C89.7967 58.5678 89.6746 58.3861 89.5077 58.2522C89.3389 58.1313 89.1307 58.0785 88.9247 58.1045C88.6271 58.1474 88.3422 58.2534 88.089 58.4155L86.5693 59.2938V66.0839L88.1434 65.1744C88.4435 65.0056 88.715 64.7904 88.948 64.537C89.1698 64.2957 89.3592 64.0265 89.5115 63.7363C89.6657 63.4439 89.7819 63.1331 89.8575 62.8113C89.9382 62.4878 89.9863 62.1571 90.0013 61.8241C90.0285 61.0467 90.0285 60.3005 90.0013 59.5737V59.5892Z" fill="#0C8CE9"/>
<path d="M96.562 51.6227C96.6825 51.5527 96.7757 51.5411 96.834 51.5916C96.9132 51.6736 96.9684 51.7758 96.9934 51.887L99.7646 59.8197C99.7693 59.8532 99.7693 59.8872 99.7646 59.9207C99.7609 60.0388 99.7303 60.1544 99.6752 60.2589C99.6284 60.359 99.5543 60.4439 99.4614 60.5037L98.6452 60.974C98.4937 61.0595 98.3887 61.079 98.3265 61.0284C98.2689 60.9819 98.2257 60.9199 98.2022 60.8497L97.7163 59.4582L94.1406 61.5221L93.6548 63.4654C93.6241 63.5768 93.5825 63.6849 93.5304 63.788C93.4567 63.9205 93.346 64.0286 93.2117 64.0989L92.3994 64.5692C92.3672 64.5909 92.3293 64.6025 92.2905 64.6025C92.2517 64.6025 92.2138 64.5909 92.1817 64.5692C92.1497 64.5391 92.125 64.5021 92.1095 64.461C92.094 64.4199 92.0881 64.3758 92.0923 64.3321C92.0883 64.2947 92.0883 64.2569 92.0923 64.2194L94.8752 53.0996C94.9116 52.9364 94.965 52.7775 95.0345 52.6255C95.0953 52.5051 95.1898 52.4052 95.3066 52.3378L96.562 51.6227ZM97.1839 57.8841L95.9401 54.3045L94.6964 59.3222L97.1839 57.8841Z" fill="#0C8CE9"/>
<path d="M105.276 46.5883C105.307 46.5664 105.345 46.5547 105.383 46.5547C105.421 46.5547 105.458 46.5664 105.49 46.5883C105.523 46.6175 105.549 46.6542 105.565 46.6955C105.582 46.7367 105.588 46.7813 105.583 46.8254V47.8943C105.581 48.0131 105.549 48.1295 105.49 48.2324C105.444 48.3332 105.37 48.4184 105.276 48.4773L103.239 49.6433V57.918C103.236 58.0374 103.206 58.1544 103.15 58.26C103.101 58.3597 103.026 58.4443 102.932 58.5049L102.019 59.0335C101.987 59.0552 101.949 59.0668 101.91 59.0668C101.871 59.0668 101.833 59.0552 101.801 59.0335C101.769 59.0034 101.745 58.9664 101.729 58.9253C101.714 58.8842 101.708 58.8401 101.712 58.7964V50.5333L99.6752 51.6993C99.6444 51.7223 99.6069 51.7348 99.5684 51.7348C99.5298 51.7348 99.4923 51.7223 99.4615 51.6993C99.4278 51.6712 99.4016 51.6352 99.3854 51.5945C99.3691 51.5538 99.3632 51.5097 99.3682 51.4661V50.4051C99.3709 50.2864 99.4029 50.1702 99.4615 50.0669C99.5081 49.9667 99.5822 49.8818 99.6752 49.8221L105.276 46.5883Z" fill="#0C8CE9"/>
<path d="M109.645 44.0754C109.765 44.0054 109.854 43.9976 109.917 44.0482C109.994 44.1302 110.049 44.2305 110.076 44.3397L112.847 52.2762C112.852 52.3085 112.852 52.3412 112.847 52.3734C112.845 52.4917 112.814 52.6077 112.758 52.7116C112.711 52.8128 112.635 52.898 112.54 52.9564L111.728 53.4267C111.576 53.5161 111.471 53.5355 111.409 53.485C111.351 53.4385 111.308 53.3764 111.285 53.3062L110.811 51.9109L107.235 53.9786L106.749 55.9219C106.718 56.0321 106.677 56.1388 106.625 56.2407C106.551 56.3732 106.44 56.4812 106.306 56.5516L105.49 57.0219C105.459 57.0455 105.422 57.0583 105.383 57.0583C105.344 57.0583 105.307 57.0455 105.276 57.0219C105.244 56.9928 105.219 56.9565 105.203 56.916C105.188 56.8754 105.182 56.8318 105.187 56.7887C105.183 56.7512 105.183 56.7134 105.187 56.676L107.958 45.5406C107.992 45.3756 108.045 45.2151 108.117 45.0626C108.177 44.9426 108.272 44.8436 108.389 44.7789L109.645 44.0754ZM110.255 50.3562L109.011 46.7727L107.767 51.7943L110.255 50.3562Z" fill="#0C8CE9"/>
<path d="M89.3605 24.8519L90.6851 22.3603L89.6203 19.2767V17.3984L92.887 19.2852V21.172L91.4815 23.604C91.4592 23.6409 91.4267 23.6705 91.3878 23.6892L89.3605 24.8519Z" fill="#0C8CE9"/>
<path opacity="0.2" d="M89.3605 24.8519L90.6851 22.3603L89.6203 19.2767V17.3984L92.887 19.2852V21.172L91.4815 23.604C91.4592 23.6409 91.4267 23.6705 91.3878 23.6892L89.3605 24.8519Z" fill="black"/>
<path d="M81.5579 2.39707C81.5751 2.05593 81.6728 1.72372 81.8431 1.42761C82.0133 1.1315 82.2513 0.879909 82.5375 0.69342L83.3339 0.233434C83.6377 0.0799602 83.9732 0 84.3135 0C84.6538 0 84.9894 0.0799602 85.2931 0.233434L97.5253 7.30785C97.811 7.49484 98.0486 7.74655 98.2188 8.04256C98.389 8.33856 98.4871 8.67052 98.5049 9.0115V22.4704C98.4881 22.8116 98.3905 23.1439 98.2202 23.4401C98.0499 23.7362 97.8118 23.9878 97.5253 24.174L96.7502 24.634C96.4464 24.7875 96.1109 24.8674 95.7706 24.8674C95.4303 24.8674 95.0947 24.7875 94.791 24.634L90.8555 22.3596L89.4543 24.7873C89.4346 24.8223 89.4052 24.8509 89.3696 24.8696C89.334 24.8884 89.2938 24.8964 89.2537 24.8928C89.2137 24.8892 89.1756 24.8741 89.1439 24.8494C89.1122 24.8246 89.0884 24.7912 89.0752 24.7532L87.5931 20.4941L82.5588 17.5766C82.2724 17.3904 82.0342 17.1388 81.8639 16.8427C81.6936 16.5465 81.596 16.2142 81.5792 15.873L81.5579 2.39707Z" fill="#0C8CE9"/>
<path opacity="0.2" d="M98.5049 22.4745C98.4881 22.8157 98.3905 23.1481 98.2202 23.4442C98.0499 23.7404 97.8118 23.9919 97.5253 24.1782L96.7502 24.6339C96.4737 24.7726 96.1709 24.8512 95.8619 24.8644C95.5528 24.8776 95.2444 24.8252 94.9571 24.7105C95.4213 24.8852 95.7706 24.6254 95.7706 24.0674V10.6043C95.7579 10.2646 95.6597 9.93352 95.4852 9.64174L98.2409 8.04883C98.418 8.34102 98.5163 8.67413 98.5262 9.01565L98.5049 22.4745Z" fill="black"/>
<path opacity="0.3" d="M81.5876 2.11952C81.7026 1.69361 82.0817 1.57009 82.5332 1.83416L94.7697 8.90858C95.0637 9.08741 95.3059 9.33993 95.4724 9.64115L98.2281 8.04823C98.065 7.74981 97.8273 7.49884 97.5381 7.31992L85.2931 0.241245C84.9894 0.0877719 84.6538 0.0078125 84.3135 0.0078125C83.9732 0.0078125 83.6376 0.0877719 83.3339 0.241245L82.5332 0.701232C82.2886 0.862215 82.0788 1.07072 81.9164 1.31437C81.754 1.55801 81.6422 1.83182 81.5876 2.11952Z" fill="white"/>
<path d="M86.9542 17.9809C86.9102 17.985 86.866 17.985 86.8221 17.9809C86.6567 17.9595 86.4994 17.8968 86.3647 17.7985C86.2299 17.7003 86.1221 17.5696 86.0512 17.4187L84.4498 14.0369C84.3368 13.7975 84.3236 13.5229 84.4131 13.2737C84.5025 13.0245 84.6873 12.821 84.9268 12.7081C85.1663 12.5951 85.4408 12.5819 85.69 12.6714C85.9392 12.7608 86.1427 12.9456 86.2557 13.1851L87.2054 15.1741L91.7883 9.83317C91.9605 9.6321 92.2056 9.5077 92.4696 9.48734C92.7336 9.46697 92.9948 9.5523 93.1959 9.72456C93.397 9.89683 93.5214 10.1419 93.5417 10.4059C93.5621 10.6699 93.4768 10.9311 93.3045 11.1322L87.7251 17.6359C87.6295 17.7461 87.5109 17.8341 87.3778 17.8937C87.2446 17.9533 87.1 17.983 86.9542 17.9809Z" fill="#FAFAFA"/>
</svg>
