<svg width="447" height="320" viewBox="0 0 447 320" fill="none" xmlns="http://www.w3.org/2000/svg">
<path d="M242.657 245.191C324.744 245.191 391.287 197.756 391.287 139.242C391.287 80.7286 324.744 33.2938 242.657 33.2938C160.571 33.2938 94.0273 80.7286 94.0273 139.242C94.0273 197.756 160.571 245.191 242.657 245.191Z" fill="#EEFAFF"/>
<path d="M112.826 294.374C150.298 294.374 180.675 289.7 180.675 283.936C180.675 278.171 150.298 273.498 112.826 273.498C75.3545 273.498 44.9775 278.171 44.9775 283.936C44.9775 289.7 75.3545 294.374 112.826 294.374Z" fill="#E5F1F7"/>
<path d="M223.724 296.462C291.419 296.462 346.296 291.789 346.296 286.024C346.296 280.259 291.419 275.586 223.724 275.586C156.029 275.586 101.151 280.259 101.151 286.024C101.151 291.789 156.029 296.462 223.724 296.462Z" fill="#E5F1F6"/>
<path d="M276.011 105.378C276.011 105.378 272.905 118.371 255.327 134.225C255.327 134.225 253.649 131.852 257.402 122.708C261.155 113.564 275.275 102.136 276.011 105.378Z" fill="#7E9E6E"/>
<path d="M235.438 113.435C235.438 113.435 239.804 110.546 233.145 102.207C226.82 94.2851 220.046 87.1113 206.123 83.7493C206.123 83.7493 209.151 103.094 218.034 108.229C226.919 113.363 235.438 113.435 235.438 113.435Z" fill="#7E9E6E"/>
<path d="M200.362 125.268C200.362 125.268 214.848 129.414 240.297 122.696C240.297 122.696 238.918 120.021 227.839 118.442C216.761 116.862 197.599 122.942 200.362 125.268Z" fill="#7E9E6E"/>
<path d="M211.685 139.359C211.685 139.359 226.743 150.715 252.193 143.997C252.193 143.997 247.909 134.921 236.831 133.341C225.753 131.761 208.923 137.032 211.685 139.359Z" fill="#7E9E6E"/>
<path d="M268.129 92.3809C268.129 92.3809 272.804 92.1223 260.811 101.871C249.486 111.075 250.84 111.24 250.84 111.24C250.84 111.24 255.846 96.7008 268.129 92.3809Z" fill="black"/>
<path d="M242.741 115.751C242.741 115.751 246.121 117.309 252.739 111.974C259.357 106.639 262.506 94.0047 268.129 92.3815C268.129 92.3815 254.055 95.9517 242.741 115.751Z" fill="#7E9E6E"/>
<path d="M403.015 261.722C403.015 261.722 389.934 265.648 368.105 251.503C368.105 251.503 369.539 247.703 379.412 247.091C389.284 246.48 405.636 258.666 403.015 261.722Z" fill="#7E9E6E"/>
<path d="M374.542 232.566C374.542 232.566 378.744 235.688 384.32 226.59C389.617 217.947 394.057 209.136 392.481 194.899C392.481 194.899 375.32 204.328 373.516 214.429C371.71 224.531 374.542 232.566 374.542 232.566Z" fill="#7E9E6E"/>
<path d="M408.282 248.818C408.282 248.818 411.029 252.611 396.342 247.796C382.475 243.251 383.069 244.478 383.069 244.478C383.069 244.478 398.005 240.823 408.282 248.818Z" fill="black"/>
<path d="M374.894 240.107C374.894 240.107 375.411 243.793 383.479 246.473C391.547 249.153 403.876 244.967 408.283 248.818C408.283 248.818 397.666 238.912 374.894 240.107Z" fill="#7E9E6E"/>
<path d="M266.982 131.532C270.984 131.532 274.86 130.127 277.934 127.562L286.462 120.446C289.531 117.885 293.176 116.513 296.911 116.513H339.234C343.075 116.513 346.188 119.627 346.188 123.467V131.531V276.688C346.188 283.316 340.816 288.689 334.188 288.689H123.209C118.055 288.689 113.876 284.51 113.876 279.355V140.865C113.876 135.71 118.055 131.532 123.209 131.532H266.982Z" fill="#085D9B"/>
<path d="M113.877 280.137C113.877 280.137 128.235 253.204 129.671 250.111L168.912 170.167C169.899 168.043 172.028 166.684 174.37 166.684H320.193C325.494 166.684 333.162 163.905 337.232 160.508L343.116 155.598C346.185 153.037 349.831 151.665 353.565 151.665H393.843C398.13 151.665 401.042 156.02 399.404 159.983L350.699 277.779C347.97 284.382 341.529 288.689 334.384 288.689H116.51C115.09 288.689 113.779 287.472 113.779 286.052L113.877 280.137Z" fill="#0C8CE9"/>
</svg>
