<svg width="20" height="21" viewBox="0 0 20 21" fill="none" xmlns="http://www.w3.org/2000/svg">
<path d="M13.3337 2.1665H6.66699C5.34091 2.1665 4.06914 2.69329 3.13146 3.63097C2.19378 4.56865 1.66699 5.84042 1.66699 7.1665V13.8332C1.66699 15.1593 2.19378 16.431 3.13146 17.3687C4.06914 18.3064 5.34091 18.8332 6.66699 18.8332H13.3337C14.6597 18.8332 15.9315 18.3064 16.8692 17.3687C17.8069 16.431 18.3337 15.1593 18.3337 13.8332V7.1665C18.3337 5.84042 17.8069 4.56865 16.8692 3.63097C15.9315 2.69329 14.6597 2.1665 13.3337 2.1665ZM3.33366 7.1665C3.33366 6.28245 3.68485 5.4346 4.30997 4.80948C4.93509 4.18436 5.78294 3.83317 6.66699 3.83317H13.3337C14.2177 3.83317 15.0656 4.18436 15.6907 4.80948C16.3158 5.4346 16.667 6.28245 16.667 7.1665V13.8332C16.6659 14.0487 16.6436 14.2637 16.6003 14.4748L13.667 12.6165C13.198 12.3082 12.6491 12.144 12.0878 12.144C11.5266 12.144 10.9776 12.3082 10.5087 12.6165L10.2087 12.8165C10.0464 12.9291 9.85165 12.9852 9.65437 12.9762C9.4571 12.9671 9.26826 12.8935 9.11699 12.7665L7.10866 11.0998C6.6344 10.7071 6.04145 10.4861 5.42587 10.4725C4.81029 10.4589 4.20814 10.6535 3.71699 11.0248L3.33366 11.3332V7.1665ZM13.3337 17.1665H6.66699C5.78294 17.1665 4.93509 16.8153 4.30997 16.1902C3.68485 15.5651 3.33366 14.7172 3.33366 13.8332V13.4165L4.72532 12.3748C4.91189 12.2247 5.14418 12.1428 5.38366 12.1428C5.62314 12.1428 5.85543 12.2247 6.04199 12.3748L8.05033 14.0415C8.47812 14.3976 9.00976 14.6055 9.56563 14.634C10.1215 14.6626 10.6716 14.5102 11.1337 14.1998L11.4337 13.9998C11.6306 13.8669 11.8627 13.7959 12.1003 13.7959C12.3379 13.7959 12.5701 13.8669 12.767 13.9998L15.8753 15.9582C15.5654 16.3327 15.1773 16.635 14.7383 16.8437C14.2992 17.0525 13.8198 17.1626 13.3337 17.1665Z" fill="#8F8F91"/>
<path d="M12.0833 10.4997C11.5308 10.4997 11.0009 10.2802 10.6102 9.88948C10.2195 9.49878 10 8.96888 10 8.41634C10 7.86381 10.2195 7.3339 10.6102 6.9432C11.0009 6.5525 11.5308 6.33301 12.0833 6.33301C12.6359 6.33301 13.1658 6.5525 13.5565 6.9432C13.9472 7.3339 14.1667 7.86381 14.1667 8.41634C14.1667 8.96888 13.9472 9.49878 13.5565 9.88948C13.1658 10.2802 12.6359 10.4997 12.0833 10.4997ZM12.0833 7.99967C11.9728 7.99967 11.8668 8.04357 11.7887 8.12171C11.7106 8.19985 11.6667 8.30583 11.6667 8.41634C11.6667 8.52685 11.7106 8.63283 11.7887 8.71097C11.8668 8.78911 11.9728 8.83301 12.0833 8.83301C12.1938 8.83301 12.2998 8.78911 12.378 8.71097C12.4561 8.63283 12.5 8.52685 12.5 8.41634C12.5 8.30583 12.4561 8.19985 12.378 8.12171C12.2998 8.04357 12.1938 7.99967 12.0833 7.99967Z" fill="#8F8F91"/>
</svg>
